<?xml version="1.0" standalone="no"?>
<!DOCTYPE svg PUBLIC "-//W3C//DTD SVG 1.1//EN" "http://www.w3.org/Graphics/SVG/1.1/DTD/svg11.dtd" >
<svg xmlns="http://www.w3.org/2000/svg">
<metadata>
This is a custom SVG webfont generated by Font Squirrel.
Copyright   :  Copyright 2012 HewlettPackard Development Company LP
Designer    : Dalton Maag Ltd
Foundry     : Dalton Maag Ltd
Foundry URL : httpwwwdaltonmaagcom
</metadata>
<defs>
<font id="HPSimplifiedRegular" horiz-adv-x="1097" >
<font-face units-per-em="2048" ascent="1665" descent="-383" />
<missing-glyph horiz-adv-x="413" />
<glyph unicode=" "  horiz-adv-x="413" />
<glyph unicode="&#x09;" horiz-adv-x="413" />
<glyph unicode="&#xa0;" horiz-adv-x="413" />
<glyph unicode="!" horiz-adv-x="538" d="M133 119q0 70 33 99.5t104 29.5q72 0 105 -30t33 -99q0 -72 -33 -101.5t-105 -29.5q-74 0 -105.5 29.5t-31.5 101.5zM164 1104v315h162q35 0 42 -30.5t7 -61.5v-225q0 -160 -7.5 -335t-23.5 -339h-106q-41 0 -48 49q-8 76 -13 159t-8 164t-4 158.5t-1 145.5z" />
<glyph unicode="&#x22;" horiz-adv-x="720" d="M426 1419h154q45 0 45 -43t-2 -95t-5 -107.5t-7.5 -110.5t-10.5 -100h-110q-37 0 -41 36q-10 86 -14.5 187.5t-8.5 232.5zM94 1419h154q45 0 45 -43t-2 -95t-5 -107.5t-7.5 -110.5t-10.5 -100h-110q-37 0 -41 36q-10 86 -14.5 187.5t-8.5 232.5z" />
<glyph unicode="#" horiz-adv-x="1185" d="M100 397v111h162l39 379h-151q-23 0 -36.5 12t-13.5 35v113h215l33 329h127q23 0 33 -13t8 -34l-29 -282h281l33 329h127q23 0 33 -13t8 -34l-29 -282h96q23 0 36 -12.5t13 -35.5v-112h-161l-39 -379h151q23 0 36 -12.5t13 -34.5v-111h-215l-34 -350h-127q-23 0 -33 13.5 t-8 33.5l30 303h-280l-35 -350h-127q-23 0 -33 13.5t-8 33.5l31 303h-96q-23 0 -36.5 12t-13.5 35zM434 508h279l39 379h-279z" />
<glyph unicode="$" d="M123 1012q0 184 105.5 274t310.5 94l14 193h80q43 0 39 -41l-13 -152q266 -18 267 -102v-84q-59 8 -131 14t-148 11l-33 -439q86 -27 153 -55.5t114 -70.5t71.5 -104.5t24.5 -156.5q0 -106 -29.5 -180t-84 -120t-133.5 -66.5t-177 -22.5l-16 -205h-80q-43 0 -39 41 l12 164q-137 10 -215 32.5t-78 72.5v92q53 -6 136 -16.5t169 -12.5l37 459q-82 27 -147.5 57.5t-111.5 73.5t-71.5 103.5t-25.5 146.5zM303 1018q0 -90 44 -132t147 -75l30 408q-125 -6 -173 -57.5t-48 -143.5zM565 170q133 4 181.5 62.5t48.5 156.5q0 49 -10.5 82t-34 55.5 t-60.5 40t-92 35.5z" />
<glyph unicode="%" horiz-adv-x="1605" d="M80 1026q0 106 21.5 180t61.5 119t93 64.5t119 19.5q63 0 118.5 -19.5t94.5 -64.5t61.5 -118.5t22.5 -180.5q0 -109 -22.5 -181.5t-61.5 -117.5t-94.5 -64.5t-118.5 -19.5q-66 0 -119 19.5t-93 64.5t-61.5 117.5t-21.5 181.5zM240 1026q0 -131 28.5 -191.5t106.5 -60.5 q80 0 107.5 60.5t27.5 191.5t-27.5 191.5t-107.5 60.5q-78 0 -106.5 -60.5t-28.5 -191.5zM315 35q0 12 11 28l807 1323h114q39 0 39 -34q0 -14 -8 -29l-807 -1323h-115q-41 0 -41 35zM936 362q0 106 21.5 180t61.5 119t93 64.5t119 19.5q63 0 118.5 -19.5t94.5 -64.5 t61.5 -118.5t22.5 -180.5q0 -109 -22.5 -181.5t-61.5 -117.5t-94.5 -64.5t-118.5 -19.5q-66 0 -119 19.5t-93 64.5t-61.5 117.5t-21.5 181.5zM1096 362q0 -131 28.5 -191.5t106.5 -60.5q80 0 107.5 60.5t27.5 191.5t-27.5 191.5t-107.5 60.5q-78 0 -106.5 -60.5 t-28.5 -191.5z" />
<glyph unicode="&#x26;" horiz-adv-x="1308" d="M88 358q0 141 69.5 234.5t223.5 173.5q-92 92 -131 172t-39 172q0 66 19.5 125t63.5 105t116.5 74t177.5 28q106 0 177 -26.5t113 -71t59 -102.5t17 -120q0 -129 -71.5 -214t-218.5 -165q84 -74 155.5 -148.5t143.5 -158.5q33 63 54 125t32 164h120q29 0 38.5 -12.5 t9.5 -40.5q0 -39 -13.5 -88t-34 -99.5t-45 -97.5t-45.5 -82q59 -74 106.5 -156.5t76.5 -148.5h-140q-33 0 -51 12.5t-37 40.5l-78 119q-86 -98 -192.5 -147.5t-249.5 -49.5q-94 0 -173 22.5t-135 70t-87 120t-31 170.5zM289 373q0 -127 72.5 -179.5t179.5 -52.5 q104 0 181 41t132 109q-78 100 -168 189t-184 173q-49 -27 -89 -53.5t-68 -58t-42 -72.5t-14 -96zM401 1110q0 -39 8.5 -71.5t26 -63.5t44 -61.5t65.5 -67.5q51 29 92 55.5t68.5 57t43 68.5t15.5 89q0 90 -45 131t-137 41q-80 0 -130.5 -38t-50.5 -140z" />
<glyph unicode="'" horiz-adv-x="389" d="M94 1419h154q45 0 45 -43t-2 -95t-5 -107.5t-7.5 -110.5t-10.5 -100h-110q-37 0 -41 36q-10 86 -14.5 187.5t-8.5 232.5z" />
<glyph unicode="(" horiz-adv-x="614" d="M127 702q0 242 61.5 450t206.5 421h109q16 0 29.5 -9.5t13.5 -29.5q0 -14 -8 -33q-51 -102 -89 -193t-64 -184.5t-38 -195t-12 -219.5q0 -119 12 -224.5t41 -210t74 -212t110 -230.5h-131q-31 0 -45 12.5t-30 36.5q-125 195 -182.5 392.5t-57.5 428.5z" />
<glyph unicode=")" horiz-adv-x="614" d="M39 1573h133q31 0 44 -12.5t30 -36.5q121 -197 181 -394.5t60 -427.5q0 -121 -14 -232.5t-47 -217t-84 -209.5t-125 -211h-106q-18 0 -30.5 9t-12.5 30q0 14 8 33q51 100 89 192t62.5 185.5t36.5 193.5t12 221q0 119 -12 224.5t-39.5 210t-73.5 212t-112 230.5z" />
<glyph unicode="*" horiz-adv-x="831" d="M57 1100l41 117q8 25 22.5 27.5t37.5 -7.5l207 -98l-25 280h125q25 0 32 -13t3 -38l-25 -227l256 110l39 -118q8 -23 -3 -34.5t-34 -15.5l-225 -47l184 -209l-100 -71q-20 -16 -33.5 -9t-26.5 27l-112 199l-146 -242l-98 74q-23 16 -20.5 30.5t18.5 32.5l158 168z" />
<glyph unicode="+" d="M139 662v124h318v344h137q47 0 47 -49v-295h270q47 0 47 -47v-125h-317v-344h-137q-47 0 -47 49v295h-269q-49 1 -49 48z" />
<glyph unicode="," horiz-adv-x="512" d="M119 119q0 70 32.5 99.5t104.5 29.5t103.5 -31t31.5 -96q0 -41 -14.5 -83t-44.5 -114l-80 -178h-92q-35 0 -35 27q0 12 6 28l80 203q-51 12 -71.5 41t-20.5 74z" />
<glyph unicode="-" horiz-adv-x="788" d="M90 514v137h559q49 0 49 -47v-137h-559q-49 0 -49 47z" />
<glyph unicode="." horiz-adv-x="512" d="M119 119q0 70 32.5 99.5t104.5 29.5t104.5 -30t32.5 -99q0 -72 -32.5 -101.5t-104.5 -29.5q-74 0 -105.5 29.5t-31.5 101.5z" />
<glyph unicode="/" horiz-adv-x="751" d="M53 -109l461 1682h141q27 0 36 -17.5t1 -44.5l-461 -1681h-141q-29 0 -36 19t-1 42z" />
<glyph unicode="0" d="M88 698q0 217 32 357.5t92 221.5t145 111.5t192 30.5q106 0 191 -29.5t144.5 -109.5t92.5 -220t33 -362q0 -221 -33 -361t-92.5 -220t-144.5 -110t-191 -30t-191.5 30t-145.5 110t-92 220t-32 361zM301 698q0 -152 10.5 -256t38 -168.5t75.5 -92t124 -27.5t124 27.5 t75.5 92t38 169t10.5 257.5q0 152 -10.5 256.5t-38 168t-75.5 91t-124 27.5t-124 -27.5t-75.5 -92t-38 -168t-10.5 -257.5z" />
<glyph unicode="1" d="M172 1122v119l96 43q170 74 259 104.5t128 30.5q29 0 40.5 -13t11.5 -34v-1372h-162q-49 0 -49 47v1143l-238 -92q-20 -8 -31.5 -10.5t-17.5 -2.5q-37 0 -37 37z" />
<glyph unicode="2" d="M131 51v76q0 104 27.5 189t74 154t107.5 126t131 109q70 53 121 93t85 76.5t49 75.5t15 90q0 96 -61.5 148.5t-212.5 52.5q-98 0 -168 -11t-96 -11q-29 0 -40 13t-11 36v92q61 23 154 41t210 18q223 0 329.5 -96t106.5 -268q0 -80 -22.5 -141.5t-61.5 -112.5t-91 -94 t-109 -86q-53 -41 -108.5 -85t-101.5 -97.5t-77 -118t-35 -144.5h557q47 0 47 -47v-129h-766q-23 0 -38 13t-15 38z" />
<glyph unicode="3" d="M109 80v104q59 -10 145 -18t164 -8q88 0 147.5 16t94 48t50 78t15.5 103q0 125 -67.5 175.5t-206.5 50.5h-78q-49 0 -49 47v129h131q78 0 126 21.5t74.5 54t35.5 71.5t9 76q0 109 -60 161t-210 52q-92 0 -155.5 -11t-100.5 -11q-29 0 -39 13t-10 36v90q59 23 148 42 t206 19q219 0 322.5 -100t103.5 -268q0 -223 -200 -320q123 -41 176 -127t53 -209q0 -207 -121 -312.5t-352 -105.5q-27 0 -67 3.5t-84 8.5t-86 12t-68 17q-29 10 -38 26t-9 36z" />
<glyph unicode="4" d="M78 389v127q33 113 88 234.5t128 236.5t159 218.5t180 180.5h194q49 0 50 -47v-829h77q49 0 50 -47v-121h-127v-342h-152q-49 0 -49 47v295h-549q-49 0 -49 47zM254 510h422v696q-76 -66 -141.5 -149.5t-119 -177t-94 -188.5t-67.5 -181z" />
<glyph unicode="5" d="M152 80v104q59 -10 141 -18t170 -8q166 0 231.5 62.5t65.5 193.5q0 74 -18.5 124t-54.5 78.5t-90 41t-126 12.5h-240q-23 0 -38 11t-13 44l39 661h662q47 0 47 -47v-129h-533l-22 -370h143q123 0 209 -29t140.5 -84t79 -133t24.5 -176q0 -117 -32 -200t-93.5 -136 t-149.5 -79t-200 -26q-27 0 -66 3.5t-81 8.5t-82 12t-66 17q-29 10 -38 26t-9 36z" />
<glyph unicode="6" d="M113 664q0 215 33.5 360t97 232t156 124t208.5 37q76 0 147.5 -10t118.5 -29q33 -12 40.5 -30.5t7.5 -40.5v-84q-76 10 -135.5 15t-124.5 5q-92 0 -157 -22.5t-105 -75.5t-60.5 -141.5t-22.5 -219.5q53 37 124 62.5t173 25.5q188 0 287.5 -107.5t99.5 -328.5 q0 -102 -23.5 -187t-75.5 -145.5t-134 -93.5t-199 -33q-131 0 -218 44.5t-140 130.5t-75.5 214t-22.5 298zM317 627q0 -127 11.5 -217.5t41 -148.5t79 -86t122.5 -28q123 0 176.5 72t53.5 215q0 59 -10.5 108.5t-36 85.5t-69.5 55t-112 19t-134.5 -18t-121.5 -57z" />
<glyph unicode="7" d="M111 1255v131h782q25 0 40 -10t15 -39v-110q-158 -311 -268.5 -617.5t-171.5 -609.5h-154q-49 0 -49 55q0 49 29 142q33 125 82 262t103 271t110.5 258t107.5 220h-577q-49 0 -49 47z" />
<glyph unicode="8" d="M90 379q0 117 46 206t163 142q-92 47 -132 133t-40 184q0 180 105.5 277.5t316.5 97.5t316.5 -97t105.5 -278q0 -98 -40 -184t-132 -133q117 -53 163 -141t46 -207q0 -205 -118 -303.5t-339 -98.5t-341 98.5t-120 303.5zM295 391q0 -131 65.5 -187.5t188.5 -56.5 t188.5 56.5t65.5 187.5q0 51 -10.5 97.5t-38 79t-77.5 52t-128 19.5t-128 -19.5t-78 -52t-38 -79t-10 -97.5zM324 1034q0 -43 7 -85t30.5 -73.5t68.5 -51t119 -19.5t119 19.5t68.5 51t30.5 73.5t7 85q0 115 -54 168t-171 53t-171 -53t-54 -168z" />
<glyph unicode="9" d="M96 969q0 100 24.5 183t77 142.5t134.5 92t196 32.5q131 0 218.5 -43t140.5 -129t75.5 -214t22.5 -296q0 -219 -31.5 -365.5t-94 -233.5t-158 -122.5t-222.5 -35.5q-78 0 -150.5 10t-119.5 28q-33 12 -40 31t-7 41v86q76 -10 135 -16t137 -6q94 0 158.5 22.5t105.5 76.5 t60.5 145t21.5 231q-53 -35 -123.5 -61.5t-171.5 -26.5q-188 0 -288.5 106.5t-100.5 321.5zM297 977q0 -61 10 -110.5t38 -84t73 -53t117 -18.5q57 0 124.5 18.5t120.5 56.5q0 242 -55 352.5t-197 110.5q-121 0 -176 -69.5t-55 -202.5z" />
<glyph unicode=":" horiz-adv-x="512" d="M119 914q0 70 32.5 99.5t104.5 29.5t104.5 -30t32.5 -99q0 -72 -32.5 -101.5t-104.5 -29.5q-74 0 -105.5 29.5t-31.5 101.5zM119 119q0 70 32.5 99.5t104.5 29.5t104.5 -30t32.5 -99q0 -72 -32.5 -101.5t-104.5 -29.5q-74 0 -105.5 29.5t-31.5 101.5z" />
<glyph unicode=";" horiz-adv-x="512" d="M119 119q0 70 32.5 99.5t104.5 29.5t103.5 -31t31.5 -96q0 -41 -14.5 -83t-44.5 -114l-80 -178h-92q-35 0 -35 27q0 12 6 28l80 203q-51 12 -71.5 41t-20.5 74zM119 914q0 70 32.5 99.5t104.5 29.5t104.5 -30t32.5 -99q0 -72 -32.5 -101.5t-104.5 -29.5 q-74 0 -105.5 29.5t-31.5 101.5z" />
<glyph unicode="&#x3c;" d="M172 668v106l659 340q18 10 37 10q35 0 35 -39v-133l-532 -252l495 -225q25 -10 31 -23.5t6 -37.5v-154l-686 342q-29 14 -37 25.5t-8 40.5z" />
<glyph unicode="=" d="M147 449v124h756q49 0 49 -47v-125h-755q-50 1 -50 48zM147 856v125h756q49 0 49 -47v-125h-755q-50 0 -50 47z" />
<glyph unicode="&#x3e;" d="M195 313v133l532 252l-496 226q-25 10 -30.5 23.5t-5.5 37.5v154l686 -342q29 -14 37 -25.5t8 -40.5v-106l-660 -340q-18 -10 -37 -11q-34 0 -34 39z" />
<glyph unicode="?" horiz-adv-x="872" d="M80 1280v100q59 23 140 41.5t183 18.5q76 0 144.5 -15.5t122 -53.5t85 -103.5t31.5 -165.5q0 -61 -12 -110.5t-35.5 -91.5t-56.5 -78t-72 -72q-59 -53 -94 -89t-55.5 -69t-28.5 -70t-10 -94h-105q-59 0 -59 102q0 47 10.5 84t32 72t55 71t78.5 79q41 39 68.5 68.5t44 55 t24 51t7.5 60.5q0 100 -54.5 142t-169.5 42q-76 0 -139 -11t-92 -11q-27 0 -35 12t-8 35zM221 119q0 70 33 99.5t104 29.5q72 0 105 -30t33 -99q0 -72 -33 -101.5t-105 -29.5q-74 0 -105.5 29.5t-31.5 101.5z" />
<glyph unicode="@" horiz-adv-x="1710" d="M104 524q0 256 69 426t182.5 271.5t262 143.5t308.5 42q129 0 254 -29.5t221 -107.5t155.5 -215t59.5 -353q0 -133 -25.5 -243.5t-80 -190.5t-141.5 -124t-210 -44h-69q-18 0 -33 10.5t-19 39.5l-8 59q-41 -49 -101.5 -85t-152.5 -36q-147 0 -211.5 101.5t-64.5 306.5 q0 100 19.5 196t69.5 170t138 119t225 45q55 0 109.5 -7t97.5 -18q25 -6 44.5 -17t17.5 -52l-39 -684q76 0 127 34.5t81.5 96t44 142.5t13.5 173q0 285 -121 424t-401 139q-129 0 -247 -32.5t-208 -115.5t-144.5 -225.5t-54.5 -361.5q0 -197 46.5 -328t133.5 -208.5 t214 -110.5t290 -33q129 0 203 12.5t109 12.5q45 0 45 -51v-74q-51 -18 -156.5 -33.5t-234.5 -15.5q-170 0 -318.5 38t-259.5 132t-175.5 254.5t-64.5 406.5zM676 496q0 -143 32.5 -199.5t125.5 -56.5q59 0 102 21.5t76 60.5l28 540q-23 6 -56.5 9t-57.5 3q-80 0 -129 -31.5 t-76 -84.5t-36 -120.5t-9 -141.5z" />
<glyph unicode="A" horiz-adv-x="1132" d="M66 51q6 61 18 121q37 199 82 380t92 340t95 292t91 235h205q25 0 37 -10t21 -33q43 -104 94 -249.5t101 -323.5t95 -382t78 -421h-174q-43 0 -49 47q-14 92 -29.5 177t-31.5 171h-457q-20 -98 -36.5 -198.5t-31.5 -196.5h-157q-45 0 -43 51zM360 563h404 q-47 197 -99.5 366t-103.5 314q-49 -145 -101.5 -314t-99.5 -366z" />
<glyph unicode="B" horiz-adv-x="1140" d="M143 47v1348q90 16 205 27.5t207 11.5q102 0 187 -19.5t145.5 -63.5t94.5 -118t34 -180q0 -121 -44 -201t-138 -121q123 -45 171 -134t48 -212q0 -111 -34 -185.5t-94.5 -118.5t-142.5 -62.5t-178 -18.5h-411q-50 0 -50 47zM352 170h236q66 0 114 11.5t79.5 38t47 71.5 t15.5 115q0 80 -20.5 128t-62.5 72.5t-103.5 31.5t-143.5 7h-162v-475zM352 809h228q57 0 100 9t72.5 35t44 70t14.5 113q0 70 -15.5 114t-47 69.5t-81 36t-118.5 10.5q-51 0 -106.5 -4.5t-90.5 -10.5v-442z" />
<glyph unicode="C" horiz-adv-x="1030" d="M115 709q0 197 28.5 336t91 227t161 128t239.5 40q72 0 148.5 -11.5t119.5 -29.5q25 -10 34 -26.5t9 -43.5v-96q-59 8 -132 15t-150 7q-92 0 -156 -25.5t-102.5 -87t-55 -165t-16.5 -258.5q0 -172 20.5 -280.5t60.5 -169t101.5 -83t145.5 -22.5q86 0 149 10t96 10 q51 0 51 -49v-100q-59 -23 -142 -40.5t-191 -17.5q-135 0 -231.5 41t-159 130.5t-91 227.5t-28.5 333z" />
<glyph unicode="D" horiz-adv-x="1232" d="M143 47v1348q47 8 101.5 15t111 12t109.5 8.5t100 3.5q145 0 250 -37t172.5 -121t99 -221t31.5 -336t-31.5 -336t-97 -222t-169 -123t-247.5 -38h-380q-50 0 -50 47zM358 172h195q88 0 153.5 19.5t108.5 79t63.5 169t20.5 289.5q0 160 -17.5 263.5t-57.5 164t-105.5 83 t-161.5 22.5q-47 0 -104.5 -4.5t-94.5 -10.5v-1075z" />
<glyph unicode="E" horiz-adv-x="1050" d="M143 47v1372h754q47 0 47 -47v-129h-586v-436h486q47 0 47 -47v-131h-533v-453h562q23 0 36 -12t13 -35v-129h-776q-50 0 -50 47z" />
<glyph unicode="F" horiz-adv-x="991" d="M143 47v1372h731q47 0 48 -47v-129h-564v-444h451q47 0 47 -47v-131h-498v-621h-165q-50 0 -50 47z" />
<glyph unicode="G" horiz-adv-x="1171" d="M115 707q0 205 31.5 345t99 226t172 124t252.5 38q104 0 183 -15.5t116 -31.5q25 -10 32 -24.5t7 -43.5v-92q-59 8 -144.5 15t-158.5 7q-104 0 -176 -21.5t-115 -80.5t-62.5 -163.5t-19.5 -270.5q0 -180 22.5 -290t67.5 -170t113.5 -80.5t160.5 -20.5q47 0 89 3t75 9v403 h-176q-18 0 -30.5 12.5t-12.5 35.5v129h367q49 0 49 -48v-663q-76 -29 -169 -45.5t-202 -16.5q-160 0 -269.5 41t-176 130.5t-96 226.5t-29.5 332z" />
<glyph unicode="H" horiz-adv-x="1243" d="M143 47v1372h166q23 0 36 -12t13 -35v-555h527v602h166q49 0 49 -47v-1372h-166q-23 0 -36 12.5t-13 34.5v590h-527v-637h-165q-50 0 -50 47z" />
<glyph unicode="I" horiz-adv-x="501" d="M143 47v1372h166q49 0 49 -47v-1372h-165q-50 0 -50 47z" />
<glyph unicode="J" horiz-adv-x="776" d="M55 63v105q41 -4 72 -5t72 -1q76 0 121 20.5t67.5 56t29.5 86t7 109.5v985h166q49 0 49 -47v-917q0 -121 -18.5 -209t-62.5 -147.5t-117.5 -88t-186.5 -28.5q-66 0 -103.5 6t-64.5 16q-20 10 -25.5 25.5t-5.5 33.5z" />
<glyph unicode="K" horiz-adv-x="1132" d="M143 47v1372h166q49 0 49 -47v-563q63 59 130 129t131.5 148.5t125 162.5t113.5 170h156q43 0 43 -39q0 -16 -15 -45q-78 -129 -210 -288.5t-306 -311.5q74 -61 154 -145t155.5 -180.5t146.5 -201t126 -208.5h-201q-33 0 -48 17.5t-25 37.5q-111 170 -238 325t-238 259 v-639h-165q-50 0 -50 47z" />
<glyph unicode="L" horiz-adv-x="966" d="M143 47v1372h166q23 0 36 -12t13 -35v-1192h504q49 0 49 -47v-133h-718q-50 0 -50 47z" />
<glyph unicode="M" horiz-adv-x="1462" d="M125 47q4 334 19.5 671t35.5 701h215q39 0 56 -47l282 -794l299 841h203q25 0 35 -12t12 -35q23 -338 37 -677t18 -695h-159q-49 0 -50 47q-2 121 -5 261.5t-7 284.5t-8 285.5t-8 266.5l-281 -785h-145q-27 0 -36 13.5t-17 34.5l-265 737q-4 -129 -8 -276.5t-8 -298 t-7 -297t-3 -273.5h-156q-49 0 -49 47z" />
<glyph unicode="N" horiz-adv-x="1255" d="M143 47v1372h172q23 0 35 -13t25 -34q27 -47 66.5 -118.5t88 -157.5t99.5 -182.5t101 -191.5t96 -184t81 -161v1042h156q49 0 49 -47v-1372h-170q-35 0 -55 47q-33 70 -78 160t-96 188.5t-104.5 199.5t-102.5 192.5t-90 166t-68 121.5v-1075h-155q-50 0 -50 47z" />
<glyph unicode="O" horiz-adv-x="1255" d="M115 709q0 227 36.5 370.5t104.5 223t162 109.5t209 30t210 -30t162.5 -109.5t104.5 -223t37 -370.5t-37 -370.5t-104.5 -223.5t-163 -110t-209.5 -30q-115 0 -209 30t-162 110t-104.5 223.5t-36.5 370.5zM334 709q0 -158 13 -263.5t47 -170t90.5 -92t142.5 -27.5 t142 27.5t90 92t48.5 170t14.5 263.5t-14.5 263t-48.5 169.5t-90 92.5t-142 28t-142.5 -28t-90.5 -92.5t-47 -169.5t-13 -263z" />
<glyph unicode="P" horiz-adv-x="1128" d="M143 47v1348q90 16 203 27.5t211 11.5q248 0 364.5 -106.5t116.5 -356.5q0 -127 -31.5 -215t-89 -143.5t-140.5 -81t-183 -25.5q-53 0 -112.5 7t-125.5 22v-535h-163q-50 0 -50 47zM356 698q53 -10 106.5 -17t106.5 -7q66 0 115 13t81 47t48 91.5t16 145.5 q0 94 -17 151.5t-52 89t-85 43t-114 11.5q-61 0 -115.5 -4.5t-89.5 -10.5v-553z" />
<glyph unicode="Q" horiz-adv-x="1255" d="M115 709q0 227 36.5 370.5t104.5 223t162 109.5t209 30t210 -30t162.5 -109.5t104.5 -223t37 -370.5q0 -141 -14.5 -248t-42 -186.5t-67.5 -134t-89 -89.5q51 -57 113.5 -141t111.5 -174h-186q-29 0 -40.5 12t-27.5 35q-31 51 -74 109.5t-75 93.5q-29 -6 -61 -8.5 t-62 -2.5q-115 0 -209 30t-162 110t-104.5 223.5t-36.5 370.5zM334 709q0 -158 13 -263.5t47 -170t90.5 -92t142.5 -27.5t142 27.5t90 92t48.5 170t14.5 263.5t-14.5 263t-48.5 169.5t-90 92.5t-142 28t-142.5 -28t-90.5 -92.5t-47 -169.5t-13 -263z" />
<glyph unicode="R" horiz-adv-x="1161" d="M143 47v1348q90 16 203 27.5t227 11.5q246 0 356.5 -107.5t110.5 -325.5q0 -154 -70.5 -250t-187.5 -137q49 -59 99.5 -139t94.5 -164t80 -166t56 -145h-178q-29 0 -42 11.5t-22 33.5q-18 51 -50 117.5t-69.5 137.5t-82.5 141.5t-93 127.5h-219v-569h-163q-50 0 -50 47z M356 735h226q53 0 99 11.5t80 40t52 81t18 131.5q0 80 -16 131.5t-48 82t-81 42t-115 11.5q-70 0 -125 -4.5t-90 -10.5v-516z" />
<glyph unicode="S" horiz-adv-x="1054" d="M98 1049q0 195 110.5 293t342.5 98q86 0 172 -11.5t133 -27.5q33 -14 40 -31.5t7 -40.5v-94q-76 10 -155.5 17.5t-163.5 7.5q-80 0 -133.5 -13.5t-85 -38t-45 -61.5t-13.5 -86q0 -55 14.5 -91t48 -62.5t88 -48t134.5 -50.5q82 -31 148.5 -61.5t114.5 -76.5t73.5 -112.5 t25.5 -169.5q0 -221 -118.5 -316.5t-343.5 -95.5q-98 0 -190.5 13.5t-143.5 32.5q-27 10 -37 26.5t-10 40.5v103q72 -10 158.5 -20.5t185.5 -10.5q86 0 142 15.5t88 43t44 68.5t12 92q0 57 -13 94t-46 62.5t-87 48t-136 51.5q-86 31 -152.5 63.5t-113 78.5t-71 111 t-24.5 159z" />
<glyph unicode="T" horiz-adv-x="1075" d="M55 1286v133h918q23 0 36 -12t13 -35v-133h-377v-1239h-166q-49 0 -49 47v1192h-326q-49 0 -49 47z" />
<glyph unicode="U" horiz-adv-x="1216" d="M135 502v917h166q49 0 49 -47v-893q0 -74 11.5 -133t40 -101t78.5 -63.5t130 -21.5q78 0 127 21.5t78 62.5t40 100t11 137v938h166q23 0 36 -12t13 -35v-870q0 -270 -109.5 -397.5t-359.5 -127.5q-115 0 -204 26t-149 86.5t-92 160.5t-32 252z" />
<glyph unicode="V" horiz-adv-x="1130" d="M57 1419h185q43 0 49 -47q14 -102 36.5 -232t56.5 -279.5t80 -313.5t107 -332q61 172 108.5 339t81.5 321.5t57.5 292t37.5 251.5h162q49 0 49 -37q0 -7 -2 -14l-23 -133q-23 -131 -60.5 -292t-84.5 -326.5t-101.5 -326.5t-109.5 -290h-197q-29 0 -42 11.5t-21 31.5 q-57 141 -112.5 309t-104.5 347.5t-88 362.5t-64 357z" />
<glyph unicode="W" horiz-adv-x="1624" d="M74 1419h174q43 0 47 -51q23 -270 73 -548.5t115 -563.5l230 1049h166q23 0 36 -13.5t17 -36.5l213 -1001q70 283 122 577.5t74 587.5h160q43 0 44 -43q0 -14 -6 -65q-3 -29 -7 -68q-16 -129 -42 -283.5t-60.5 -318.5t-77.5 -327.5t-92 -313.5h-181q-25 0 -37 12.5 t-18 38.5l-211 965l-223 -1016h-174q-29 0 -40 10t-22 35q-47 141 -92 313t-82 355.5t-64.5 364.5t-41.5 341z" />
<glyph unicode="X" horiz-adv-x="1140" d="M74 45q0 14 10 41q51 150 137 314.5t215 332.5q-49 68 -102 151t-102.5 174t-91.5 183t-66 178h190q23 0 34 -12t17 -35q20 -63 50 -134t65 -141.5t72 -136t71 -116.5q37 55 77 124.5t77 145.5t67.5 155t49.5 150h153q20 0 36 -9t16 -36q0 -10 -4.5 -22.5t-8.5 -26.5 q-25 -70 -63.5 -147.5t-83.5 -156.5t-94.5 -153.5t-94.5 -138.5q147 -188 239.5 -379.5t139.5 -349.5h-190q-25 0 -36 14.5t-19 40.5q-39 121 -102.5 266.5t-166.5 290.5q-109 -156 -175 -316.5t-109 -295.5h-156q-23 0 -37 10t-14 35z" />
<glyph unicode="Y" horiz-adv-x="1075" d="M39 1419h186q31 0 40 -13t18 -42q18 -66 44.5 -141.5t58.5 -158.5t71 -170t86 -173q47 88 91 187.5t80 194.5t62.5 178t36.5 138h160q29 0 41 -19q7 -11 6 -24q0 -11 -4 -24q-37 -117 -76 -219.5t-84 -199.5t-97 -193.5t-114 -200.5v-539h-166q-49 0 -49 47v492 q-70 117 -127 224t-104 214.5t-87 216t-73 225.5z" />
<glyph unicode="Z" horiz-adv-x="1073" d="M78 47v121q63 113 143 248t168 276.5t178 282.5t176 264h-600q-49 0 -49 47v133h838q47 0 47 -47v-127q-96 -141 -190.5 -286.5t-180.5 -283.5t-160.5 -264t-132.5 -231h631q49 0 49 -47v-133h-868q-49 0 -49 47z" />
<glyph unicode="[" horiz-adv-x="663" d="M141 -123v1696h418q49 0 49 -47v-115h-272v-1419h223q49 0 49 -47v-115h-418q-49 0 -49 47z" />
<glyph unicode="\" horiz-adv-x="751" d="M37 1573h153q27 0 40.5 -12.5t21.5 -42.5l463 -1688h-156q-25 0 -38 12.5t-21 42.5z" />
<glyph unicode="]" horiz-adv-x="663" d="M55 -8h273v1419h-224q-49 0 -49 47v115h418q49 0 49 -47v-1696h-418q-49 0 -49 47v115z" />
<glyph unicode="^" d="M133 710.5q-4 20.5 6 37.5l328 647h125q25 0 36 -6.5t21 -28.5l334 -670h-137q-35 0 -51.5 8.5t-26.5 30.5l-221 453l-242 -492h-139q-29 0 -33 20.5z" />
<glyph unicode="_" horiz-adv-x="1032" d="M0 -264v172h1032v-172h-1032z" />
<glyph unicode="`" horiz-adv-x="888" d="M188 1477h191q27 0 41 -9.5t24 -35.5q51 -123 105 -258h-113q-41 0 -63 36z" />
<glyph unicode="a" horiz-adv-x="1019" d="M84 313q0 96 29.5 160t84 101.5t128 53t159.5 15.5h211v70q0 106 -55 145t-188 39q-90 0 -162 -9t-94 -9q-27 0 -38.5 13t-11.5 34v88q72 23 162 37t185 14q117 0 194.5 -25.5t124.5 -72.5t66.5 -115t19.5 -150v-702h-125q-35 0 -43 15.5t-12 35.5l-8 62 q-53 -51 -128 -91t-184 -40q-160 0 -237.5 87.5t-77.5 243.5zM270 319q0 -94 45 -137t138 -43q82 0 141 32t102 73v254h-217q-61 0 -102 -13.5t-64.5 -37t-33 -56.5t-9.5 -72z" />
<glyph unicode="b" horiz-adv-x="1067" d="M125 106v1364h145q61 0 62 -59v-430q47 33 111.5 59.5t154.5 26.5q88 0 156.5 -31.5t116 -98.5t72 -171t24.5 -250q0 -145 -26 -246.5t-81 -167t-142 -95.5t-208 -30q-117 0 -206 20.5t-134 39.5q-25 10 -35 25t-10 44zM332 160q41 -10 82 -16.5t94 -6.5q63 0 110.5 14.5 t78 56.5t46 115.5t15.5 192.5q0 111 -13.5 184.5t-41 117.5t-68.5 63.5t-98 19.5q-66 0 -116 -19.5t-89 -47.5v-674z" />
<glyph unicode="c" horiz-adv-x="868" d="M100 518q0 287 101.5 417t312.5 130q70 0 137.5 -11.5t98.5 -25.5q23 -10 32 -26.5t9 -38.5v-89q-66 10 -125.5 15.5t-102.5 5.5q-70 0 -118 -17.5t-78.5 -60.5t-44 -113.5t-13.5 -175.5q0 -117 16.5 -190.5t47 -115.5t76 -57t104.5 -15t113.5 7t78.5 7q49 0 50 -49v-86 q-47 -20 -121 -36t-156 -16q-115 0 -194.5 36t-129 104.5t-72 170t-22.5 230.5z" />
<glyph unicode="d" horiz-adv-x="1067" d="M100 512q0 295 101.5 423t306.5 128q86 0 142.5 -16.5t84.5 -32.5v456h158q23 0 36 -12t13 -35v-1423h-125q-23 0 -38 10t-19 41l-8 64q-47 -51 -120 -92t-181 -41q-184 0 -267.5 136t-83.5 394zM309 522q0 -195 43 -282.5t160 -87.5q82 0 136 31.5t87 64.5v620 q-39 16 -83 26.5t-97 10.5q-72 0 -120 -20.5t-75.5 -66.5t-39 -119t-11.5 -177z" />
<glyph unicode="e" horiz-adv-x="1015" d="M100 518q0 147 27 251.5t81 171.5t134 96.5t186 29.5q119 0 195 -34t119 -91t59.5 -134t16.5 -165q0 -59 -6.5 -114.5t-16.5 -84.5h-598q4 -82 18.5 -139t48 -93t91 -52.5t147.5 -16.5q80 0 145.5 8.5t90.5 8.5q47 0 47 -45v-86q-49 -20 -134 -36t-196 -16 q-117 0 -203 29t-142 93.5t-83 168t-27 250.5zM297 590h432q2 20 2 31v26q0 131 -40 197.5t-156 66.5q-70 0 -115 -22.5t-71.5 -63.5t-38 -101t-13.5 -134z" />
<glyph unicode="f" horiz-adv-x="698" d="M63 926v116h121v158q0 139 63.5 216t221.5 77q33 0 82 -5t78 -18q23 -10 30 -25t7 -36v-90q-51 6 -78 8t-64 2q-45 0 -71.5 -10t-40 -28.5t-17.5 -44t-4 -56.5v-148h207q23 0 36 -12t13 -35v-116h-256v-879h-160q-47 0 -47 47v832h-71q-50 0 -50 47z" />
<glyph unicode="g" horiz-adv-x="1062" d="M100 530q0 154 30 255.5t91.5 162t154.5 85t220 24.5q82 0 170 -8.5t149 -18.5q39 -6 58.5 -18.5t19.5 -48.5v-89h-78q6 -129 8.5 -254.5t2.5 -248.5v-367q0 -180 -100.5 -274.5t-311.5 -94.5q-33 0 -74 3.5t-83 8.5t-79.5 12t-62.5 17q-27 10 -34 25.5t-7 38.5v86 q72 -10 143.5 -16.5t137.5 -6.5q150 0 208 42t58 145v127q-59 -41 -119.5 -63.5t-142.5 -22.5q-106 0 -175 36.5t-110 103.5t-57.5 157.5t-16.5 201.5zM307 535q0 -96 12.5 -162t38 -107t66.5 -58.5t96 -17.5q66 0 112 19.5t89 48.5v631q-33 4 -66.5 5t-62.5 1 q-76 0 -129 -14.5t-88 -54.5t-51.5 -109t-16.5 -182z" />
<glyph unicode="h" horiz-adv-x="1073" d="M125 47v1423h158q23 0 36 -12t13 -35v-485q59 63 140 95t173 32q164 0 235.5 -96.5t71.5 -259.5v-709h-157q-23 0 -36.5 12.5t-13.5 34.5v645q0 106 -45 152.5t-131 46.5q-84 0 -143 -34t-94 -69v-788h-158q-49 0 -49 47z" />
<glyph unicode="i" horiz-adv-x="464" d="M106 1319q0 59 30 86t97 27q66 0 96.5 -27t30.5 -86q0 -61 -30.5 -87t-96.5 -26q-68 0 -97.5 26t-29.5 87zM129 47v995h158q49 0 49 -47v-995h-158q-49 0 -49 47z" />
<glyph unicode="j" horiz-adv-x="464" d="M-59 -193q25 -2 46 -2h44q53 0 75.5 27t22.5 82v1128h158q49 0 49 -47v-1110q0 -113 -60.5 -177t-189.5 -64q-29 0 -61.5 3t-51.5 13q-10 4 -21 18.5t-11 36.5v92zM106 1319q0 59 30 86t97 27q66 0 96.5 -27t30.5 -86q0 -61 -30.5 -87t-96.5 -26q-68 0 -97.5 26t-29.5 87 z" />
<glyph unicode="k" horiz-adv-x="1005" d="M125 47v1423h158q23 0 36 -12t13 -35v-811q139 115 231 224.5t162 205.5h154q35 0 34 -36q0 -23 -20 -52q-16 -27 -53 -72.5t-88.5 -101t-112.5 -115t-125 -108.5q76 -61 138.5 -123.5t117.5 -130t105.5 -142.5t99.5 -161h-191q-29 0 -42 12.5t-23 34.5q-37 59 -76 113.5 t-86 108t-102.5 108.5t-122.5 115v-492h-158q-49 0 -49 47z" />
<glyph unicode="l" horiz-adv-x="534" d="M125 299v1171h158q23 0 36 -12t13 -35v-1181q0 -55 18.5 -71.5t65.5 -18.5q33 -2 49 -10.5t16 -39.5v-94q-33 -10 -67.5 -15t-75.5 -5q-63 0 -104 19.5t-66 58t-34 97t-9 136.5z" />
<glyph unicode="m" horiz-adv-x="1648" d="M125 47v995h125q23 0 38 -10t19 -41l8 -63q57 63 132 100t180 37q86 0 156.5 -33t107.5 -117q49 55 131 102.5t205 47.5q143 0 222 -85t79 -271v-709h-160q-47 0 -47 47v645q0 106 -43 152.5t-123 46.5q-82 0 -139.5 -36t-91.5 -71q6 -53 6 -106v-678h-158 q-23 0 -36 12.5t-13 34.5v645q0 106 -43 152.5t-123 46.5q-78 0 -134 -33t-91 -67v-791h-158q-49 0 -49 47z" />
<glyph unicode="n" horiz-adv-x="1073" d="M125 47v995h125q23 0 38 -10t19 -41l8 -63q127 137 326 137q168 0 239.5 -97.5t71.5 -258.5v-709h-157q-23 0 -36.5 12.5t-13.5 34.5v645q0 106 -45 152.5t-131 46.5q-84 0 -143 -34t-94 -69v-788h-158q-49 0 -49 47z" />
<glyph unicode="o" horiz-adv-x="1077" d="M100 522q0 283 103.5 414t335.5 131q231 0 334.5 -131t103.5 -414q0 -285 -103.5 -416t-334.5 -131t-335 131t-104 416zM309 522q0 -113 13.5 -187.5t41 -118.5t71.5 -61.5t104 -17.5q59 0 103 17.5t71.5 61.5t41 119t13.5 187q0 111 -13.5 184.5t-41 117.5t-71.5 62.5 t-103 18.5t-103.5 -18.5t-72 -62.5t-41 -117.5t-13.5 -184.5z" />
<glyph unicode="p" horiz-adv-x="1073" d="M70 920v98q31 6 77 13t99 12.5t112.5 9.5t114.5 4q131 0 225.5 -25.5t155.5 -87t90 -163t29 -255.5q0 -279 -94.5 -408.5t-290.5 -129.5q-88 0 -145.5 20.5t-98.5 42.5v-399h-158q-49 0 -49 47v690q0 117 2 240t8 245h-36q-41 1 -41 46zM344 195q41 -20 84 -32.5 t102 -12.5q61 0 105.5 17t73 60t42 116t13.5 183q0 100 -12.5 171t-45 115t-89 63.5t-144.5 19.5q-25 0 -61.5 -1t-67.5 -5v-694z" />
<glyph unicode="q" horiz-adv-x="1073" d="M100 506q0 162 31 268.5t93.5 170t156.5 88t221 24.5q82 0 172 -8.5t152 -18.5q39 -6 58.5 -18.5t19.5 -48.5v-89h-78q6 -123 8 -245.5t2 -239.5v-737h-158q-23 0 -36 12t-13 35v377q-53 -37 -115.5 -62.5t-154.5 -25.5q-186 0 -272.5 125t-86.5 393zM309 510 q0 -102 12.5 -171t37 -111t64.5 -60t95 -18q66 0 118 21.5t93 49.5v668q-31 4 -66.5 5t-64.5 1q-76 0 -130 -14.5t-90 -56.5t-52.5 -117.5t-16.5 -196.5z" />
<glyph unicode="r" horiz-adv-x="718" d="M125 47v995h125q27 0 39 -11t18 -40l8 -90q47 57 121 102.5t162 45.5q41 0 55.5 -13.5t14.5 -36.5v-137q-14 2 -29 2h-27q-84 0 -152.5 -26.5t-127.5 -89.5v-748h-158q-49 0 -49 47z" />
<glyph unicode="s" horiz-adv-x="905" d="M80 758q0 166 96 236.5t270 70.5q35 0 76 -3t80 -8t73 -12.5t56 -15.5q23 -10 32 -22.5t9 -38.5v-88q-92 10 -160.5 15t-124.5 5q-117 0 -162.5 -30.5t-45.5 -98.5q0 -37 12 -60.5t38.5 -40t69.5 -29.5t103 -28q70 -18 129 -37.5t102 -51.5t66.5 -84t23.5 -134 q0 -90 -27.5 -152.5t-78.5 -101.5t-122 -55.5t-157 -16.5q-37 0 -81 3.5t-87 9.5t-79.5 13t-57.5 15q-25 10 -33 25.5t-8 38.5v88q66 -8 145.5 -15.5t155.5 -7.5q135 0 182.5 35t47.5 111q0 35 -9.5 58.5t-34 41t-66.5 31.5t-107 31q-72 18 -132.5 37.5t-103.5 52.5 t-66.5 83t-23.5 130z" />
<glyph unicode="t" horiz-adv-x="714" d="M63 926v116h125l11 271h143q49 0 49 -47v-224h201q23 0 36 -12t13 -35v-116h-250v-615q0 -55 18.5 -86t73.5 -31q35 0 58.5 1.5t44.5 1.5q55 0 55 -48v-96q-47 -12 -89 -18t-87 -6q-147 0 -214 65.5t-67 206.5v625h-71q-50 0 -50 47z" />
<glyph unicode="u" horiz-adv-x="1073" d="M121 334v708h158q23 0 36 -12t13 -35v-645q0 -106 45 -152t131 -46q84 0 143.5 33.5t93.5 68.5v788h158q49 0 49 -47v-995h-125q-23 0 -38 10t-19 41l-8 64q-127 -137 -326 -138q-84 0 -143.5 26t-96 72t-54 112.5t-17.5 146.5z" />
<glyph unicode="v" horiz-adv-x="974" d="M53 1042h168q43 0 49 -47q12 -98 35 -204.5t50.5 -214t62.5 -210t71 -188.5q39 88 74 196.5t64.5 224.5t52 229.5t35.5 213.5h155q43 0 43 -45q-2 -23 -6 -50t-10 -62q-41 -219 -118 -441.5t-183 -443.5h-176q-29 0 -40 11.5t-22 33.5q-111 242 -192.5 493.5 t-112.5 503.5z" />
<glyph unicode="w" horiz-adv-x="1433" d="M68 1042h161q45 0 50 -47q8 -84 21 -182t32.5 -201.5t43 -205t50.5 -189.5l201 739h127q33 0 47 -10t24 -45l185 -684q27 90 51 197.5t44.5 218t35 217t24.5 192.5h150q29 0 37 -13q7 -11 6 -27q0 -15 -6 -63q-4 -30 -9 -60q-31 -205 -88 -433.5t-143 -445.5h-160 q-23 0 -34 11.5t-17 33.5l-184 672l-197 -717h-155q-29 0 -39.5 11.5t-18.5 33.5q-45 117 -83 242t-68.5 253t-53 254.5t-34.5 247.5z" />
<glyph unicode="x" horiz-adv-x="980" d="M53 1042h180q25 0 36.5 -12t19.5 -33q25 -59 46 -105t44.5 -87t51.5 -83t65 -91q66 86 127 194.5t98 216.5h139q20 0 35.5 -7t15.5 -29q0 -6 -3 -17.5t-13 -38.5q-18 -47 -50 -101t-70 -109.5t-79 -107.5t-78 -93q125 -133 205 -276.5t117 -262.5h-182q-29 0 -37 14.5 t-14 30.5q-43 109 -92.5 202t-127.5 191q-86 -106 -143 -223t-94 -215h-144q-18 0 -34.5 7t-16.5 30q0 16 15 49q49 117 122.5 232.5t172.5 220.5q-41 47 -87.5 107.5t-89.5 127t-79 136t-56 132.5z" />
<glyph unicode="y" horiz-adv-x="983" d="M55 1042h166q31 0 39 -15t12 -32q20 -119 39 -207t43.5 -174t61.5 -184t94 -233q78 186 128 401t79 444h153q27 0 35 -11t8 -27q0 -18 -5 -51t-9 -60q-35 -205 -88 -382t-106 -308q-68 -170 -129.5 -277.5t-122 -171t-121 -87t-123.5 -23.5q-25 0 -55.5 3t-44.5 11 q-35 16 -35 55v94q25 -2 43 -2h35q51 0 89 13.5t66.5 39t53 65.5t53.5 93q-68 117 -125.5 245t-103.5 260t-80 263t-50 258z" />
<glyph unicode="z" horiz-adv-x="935" d="M82 47v100q51 80 116.5 173.5t136.5 189.5t143.5 190.5t139.5 178.5h-477q-47 0 -47 47v116h697q57 0 57 -59v-94q-76 -94 -150.5 -192.5t-144.5 -192.5t-131.5 -181t-110.5 -159h496q23 0 36 -12.5t13 -34.5v-117h-725q-49 0 -49 47z" />
<glyph unicode="{" horiz-adv-x="692" d="M86 649v137q39 2 71.5 26t32.5 93v395q0 61 10.5 112.5t38 89.5t79 58.5t131.5 20.5q35 0 76.5 -4t76.5 -16q23 -10 29 -25.5t6 -36.5v-82q-33 4 -70 4h-53q-86 0 -108.5 -43t-22.5 -135v-325q0 -66 -22.5 -123.5t-88.5 -87.5q66 -33 88.5 -90.5t22.5 -122.5v-336 q0 -90 22.5 -133t108.5 -43q23 0 47.5 1t30.5 1q29 0 37 -13.5t8 -33.5v-78q-20 -12 -46 -19.5t-51.5 -11.5t-50 -5t-43.5 -1q-80 0 -130 20.5t-77.5 58.5t-38 89t-10.5 112v398q0 55 -21.5 79.5t-51.5 32.5q-31 8 -31 37z" />
<glyph unicode="|" horiz-adv-x="589" d="M197 -123v1696h145q49 0 49 -47v-1696h-145q-23 0 -36 12t-13 35z" />
<glyph unicode="}" horiz-adv-x="692" d="M55 -14q33 -4 70 -4h53q86 0 108.5 43t22.5 135v327q0 66 22.5 123.5t88.5 87.5q-66 33 -88.5 90.5t-22.5 122.5v334q0 90 -22.5 133t-108.5 43q-23 0 -47.5 -1t-30.5 -1q-29 0 -37 13.5t-8 33.5v78q20 12 46 19.5t51.5 11.5t50 5t43.5 1q80 0 130 -20.5t77.5 -58.5 t38 -89t10.5 -113v-395q0 -55 21.5 -79.5t51.5 -32.5q16 -4 23.5 -12.5t7.5 -24.5v-138q-39 -2 -71.5 -25.5t-32.5 -92.5v-398q0 -61 -10.5 -112t-38 -89t-78.5 -58.5t-131 -20.5q-35 0 -77 4t-77 16q-23 10 -29 25.5t-6 36.5v82z" />
<glyph unicode="~" d="M119 582q0 113 54 187.5t177 74.5q68 0 118 -22.5t105 -59.5l83 -55q34 -23 75 -23q57 0 70.5 43t13.5 113h119q33 0 40 -14.5t7 -43.5q0 -113 -54.5 -187.5t-176.5 -74.5q-68 0 -118 22.5t-106 59.5l-83 55q-34 23 -74 23q-57 0 -70.5 -43t-13.5 -113h-119 q-33 0 -40 14.5t-7 43.5z" />
<glyph unicode="&#xa1;" horiz-adv-x="538" d="M131 950q0 72 33 101.5t104 29.5q74 0 106 -29.5t32 -101.5q0 -70 -33 -99.5t-105 -29.5t-104.5 29.5t-32.5 99.5zM164 -33q0 160 7 335t24 339h106q41 0 47 -49q8 -78 13.5 -160t8.5 -163t4 -158.5t1 -145.5v-315h-162q-35 0 -42 30.5t-7 61.5v225z" />
<glyph unicode="&#xa2;" d="M201 707q0 285 102.5 414.5t325.5 129.5l16 168h78q39 0 39 -33l-14 -143q96 -10 138 -30.5t42 -61.5v-86q-47 6 -96.5 11t-96.5 7l-63 -745q61 0 119.5 8t85.5 8q55 0 55 -51v-84q-47 -18 -118 -31.5t-157 -17.5l-16 -195h-80q-39 0 -39 41l13 162q-92 14 -157 55 t-103.5 108t-56 159t-17.5 207zM389 717q0 -92 10.5 -157.5t31 -108.5t50 -67t70.5 -34l63 733q-61 -6 -103 -26.5t-69.5 -62.5t-40 -109.5t-12.5 -167.5z" />
<glyph unicode="&#xa3;" d="M152 676v108h145q-16 59 -24.5 118t-8.5 108q0 197 97.5 303t308.5 106q55 0 109.5 -5t97.5 -17.5t69.5 -33t26.5 -50.5v-99q-55 10 -124 16.5t-138 6.5q-135 0 -189.5 -58.5t-54.5 -187.5q0 -47 8 -98t23 -109h293q49 0 49 -45v-110h-318q2 -16 3 -30.5t1 -31.5 q0 -213 -141 -389h578q33 0 41 -20.5t8 -55.5v-102h-787q-49 0 -49 47v131q66 78 110 171t44 210q0 33 -6 70h-123q-49 0 -49 47z" />
<glyph unicode="&#xa4;" d="M74 1059l86 88q25 29 49 4l127 -123q90 53 213 53t213 -53l145 146l86 -84q31 -27 4 -54l-114 -118q61 -90 61 -224q0 -133 -61 -221l141 -141l-86 -90q-27 -27 -49 -2l-127 122q-90 -53 -213 -53q-125 0 -213 51l-146 -145l-92 90q-25 23 -2 45l119 123q-61 88 -61 221 t61 224zM324 694q0 -100 54 -164.5t171 -64.5t171 64.5t54 164.5q0 102 -54 167t-171 65t-171 -65t-54 -167z" />
<glyph unicode="&#xa5;" d="M51 1386h180q27 0 35 -12t19 -41q59 -178 120.5 -328.5t133.5 -279.5q45 84 88 176t77.5 181t61.5 168t39 136h149q45 0 45 -36q0 -16 -7 -40t-15 -46q-25 -72 -86.5 -222.5t-196.5 -373.5h207q47 0 47 -43v-93h-317v-188h272q45 0 45 -43v-90h-317v-211h-150 q-47 0 -47 45v166h-272q-45 0 -45 43v90h317v188h-272q-45 0 -45 46v90h252q-104 180 -183.5 350.5t-134.5 367.5z" />
<glyph unicode="&#xa6;" horiz-adv-x="589" d="M197 -123v635h145q49 0 49 -47v-635h-145q-23 0 -36 12t-13 35zM197 938v635h145q49 0 49 -47v-635h-145q-23 0 -36 12t-13 35z" />
<glyph unicode="&#xa7;" horiz-adv-x="1071" d="M96 631q0 111 48.5 179.5t156.5 121.5q-70 37 -104.5 87t-34.5 136q0 82 28.5 137.5t78.5 89t120 49t150 15.5q39 0 82 -3t82.5 -9.5t72.5 -13.5t53 -15q23 -10 33 -22.5t10 -41.5v-88q-100 10 -168.5 16.5t-128.5 6.5q-109 0 -165 -24.5t-56 -96.5q0 -37 15.5 -58.5 t45 -37t73.5 -28.5t100 -30q92 -29 164.5 -56t124 -67t78 -97.5t26.5 -143.5q0 -111 -49 -178.5t-156 -120.5q74 -37 113 -91t39 -147q0 -92 -34 -151.5t-93.5 -93t-138 -47t-170.5 -13.5q-59 0 -121 5t-113 17.5t-84 34t-33 52.5v90q78 -12 170 -19.5t168 -7.5 q123 0 187.5 26.5t64.5 108.5q0 37 -14.5 59.5t-43 40t-75.5 32t-111 32.5q-104 31 -179 62.5t-122 73.5t-68.5 97.5t-21.5 131.5zM291 645q0 -47 14 -80t53 -58.5t104.5 -47t170.5 -47.5q80 35 116.5 85t36.5 126q0 47 -15 79.5t-53 58t-104.5 48t-169.5 49.5 q-84 -35 -118.5 -86t-34.5 -127z" />
<glyph unicode="&#xa8;" horiz-adv-x="888" d="M135 1319q0 59 27.5 85t91.5 26q61 0 89 -26t28 -85t-28 -85t-89 -26q-63 0 -91 26t-28 85zM518 1319q0 59 27.5 85t91.5 26q61 0 89 -26t28 -85t-28 -85t-89 -26q-63 0 -91 26t-28 85z" />
<glyph unicode="&#xa9;" horiz-adv-x="1609" d="M102 709q0 172 47.5 308t138.5 230t221 143.5t296 49.5t296 -49.5t221 -143.5t138 -230t47 -308t-47 -308.5t-138 -230.5t-221 -143.5t-296 -49.5t-296 49.5t-221 143.5t-138.5 230.5t-47.5 308.5zM252 709q0 -127 29.5 -234.5t95 -186.5t171 -124t257.5 -45t257 45 t170.5 124t95.5 186.5t30 234.5q0 125 -30 233.5t-95.5 187t-171 123.5t-256.5 45q-152 0 -257.5 -45t-171 -123.5t-95 -187t-29.5 -233.5zM492 709q0 215 86 307t249 92q41 0 79 -3t65.5 -11.5t44 -22.5t16.5 -37v-80q-51 6 -88 8.5t-76 2.5q-49 0 -88 -10.5t-64.5 -39 t-38.5 -78t-13 -126.5q0 -86 15 -137.5t40.5 -77t61.5 -33.5t79 -8q49 0 78 4t57 4q41 0 41 -39v-76q-31 -14 -88 -25.5t-125 -11.5q-172 0 -251.5 94.5t-79.5 303.5z" />
<glyph unicode="&#xaa;" horiz-adv-x="745" d="M80 967q0 121 74.5 169t203.5 48h125v39q0 68 -43 84t-108 16q-55 0 -95 -6t-69 -6q-23 0 -31 10t-8 22v70q45 14 106.5 23.5t124.5 9.5q150 0 212.5 -60.5t62.5 -160.5v-451h-90q-16 0 -26.5 7t-16.5 30l-6 47q-39 -37 -90.5 -65.5t-116.5 -28.5q-98 0 -153.5 51.5 t-55.5 151.5zM104 559v82h482q23 0 36 -12.5t13 -34.5v-80h-481q-23 0 -36.5 11t-13.5 34zM219 977q0 -98 107 -98q51 0 95 24.5t62 50.5v129h-125q-76 0 -107.5 -28.5t-31.5 -77.5z" />
<glyph unicode="&#xab;" horiz-adv-x="892" d="M82 530l190 390h131q20 0 30.5 -14.5t0.5 -33.5l-158 -342l168 -389h-141q-37 0 -54.5 35t-31.5 66zM453 530l190 390h131q20 0 30.5 -14.5t0.5 -33.5l-158 -342l168 -389h-141q-37 0 -54.5 35t-31.5 66z" />
<glyph unicode="&#xac;" d="M139 780v125h754q47 0 47 -47v-473h-131q-47 0 -47 47v301h-574q-49 0 -49 47z" />
<glyph unicode="&#xad;" horiz-adv-x="788" d="M90 514v137h559q49 0 49 -47v-137h-559q-49 0 -49 47z" />
<glyph unicode="&#xae;" horiz-adv-x="1005" d="M76 1063q0 203 113.5 318.5t312.5 115.5t312.5 -115.5t113.5 -318.5t-114 -318.5t-312 -115.5q-199 0 -312.5 115.5t-113.5 318.5zM178 1063q0 -164 84 -252t240 -88t239.5 88t83.5 252t-84 252t-239 88q-156 0 -240 -88t-84 -252zM342 877v399q35 6 81 10t77 4 q168 0 168 -141q0 -45 -19.5 -73.5t-54.5 -45.5q31 -41 59.5 -94t42.5 -88h-82q-20 0 -26 6t-10 16q-12 29 -34 71t-40 69h-66v-162h-67q-29 0 -29 29zM438 1081h60q35 0 52 13.5t17 54.5q0 43 -18.5 54t-56.5 11h-25q-16 0 -29 -2v-131z" />
<glyph unicode="&#xaf;" horiz-adv-x="888" d="M184 1282v109h471q49 0 50 -48v-108h-472q-49 0 -49 47z" />
<glyph unicode="&#xb0;" horiz-adv-x="698" d="M80 1159q0 121 72.5 194.5t197.5 73.5q123 0 195.5 -73.5t72.5 -194.5t-72.5 -194.5t-195.5 -73.5t-196.5 69.5t-73.5 198.5zM209 1159q0 -74 33.5 -110.5t107.5 -36.5t106.5 41t32.5 106q0 66 -32.5 107t-106.5 41q-72 0 -106.5 -41t-34.5 -107z" />
<glyph unicode="&#xb1;" d="M139 47v121h772q47 0 47 -47v-121h-770q-49 0 -49 47zM139 700v121h318v334h137q47 0 47 -49v-285h268q49 0 49 -47v-121h-317v-334h-137q-47 0 -47 50v284h-269q-49 0 -49 47z" />
<glyph unicode="&#xb2;" horiz-adv-x="774" d="M106 618v46q0 61 17.5 109t47.5 88t70 73t85 61q37 23 68.5 42.5t55 39t38 43t14.5 54.5q0 45 -33 71.5t-123 26.5q-59 0 -104 -8.5t-74 -8.5t-38 12.5t-9 32.5v64q39 14 105.5 25.5t133.5 11.5q51 0 104.5 -9.5t96.5 -34t70.5 -66.5t27.5 -107q0 -72 -32.5 -123 t-98.5 -96q-41 -29 -86 -55.5t-85 -57.5t-66.5 -66.5t-30.5 -80.5h358q47 0 48 -41v-89h-512q-20 0 -34 12.5t-14 30.5z" />
<glyph unicode="&#xb3;" horiz-adv-x="774" d="M92 637v72q53 -8 107.5 -13.5t103.5 -5.5q115 0 152 33t37 88q0 66 -39 91.5t-121 25.5h-58q-47 0 -47 43v84h115q43 0 69.5 11t41 27.5t19.5 37t5 38.5q0 53 -35.5 78t-117.5 25q-51 0 -100.5 -6t-71.5 -6q-29 0 -38.5 11t-9.5 32v63q39 14 102.5 24.5t135.5 10.5 q154 0 222.5 -57.5t68.5 -157.5q0 -66 -26.5 -110t-80.5 -72q66 -33 95.5 -80t29.5 -119q0 -123 -79.5 -183.5t-233.5 -60.5q-20 0 -48 1t-55.5 4t-53 7.5t-44.5 10.5q-29 10 -37 22.5t-8 30.5z" />
<glyph unicode="&#xb4;" horiz-adv-x="888" d="M346 1187q-8 13 2 34q29 70 59.5 133t65.5 123h168q35 0 35 -27q0 -14 -8.5 -28.5t-20.5 -30.5l-168 -217h-104q-21 0 -29 13z" />
<glyph unicode="&#xb5;" horiz-adv-x="1077" d="M125 -301v1343h158q23 0 36 -12t13 -35v-645q0 -104 45 -151t131 -47q84 0 143.5 33.5t93.5 68.5v788h158q49 0 49 -47v-995h-125q-25 0 -39 11.5t-18 39.5l-8 64q-41 -45 -108.5 -86t-174.5 -41q-29 0 -70.5 9t-76.5 44v-389h-158q-49 0 -49 47z" />
<glyph unicode="&#xb6;" horiz-adv-x="1181" d="M96 975q0 131 36 219t106.5 141.5t177 75t250.5 21.5q43 0 89 -2.5t90 -6.5t82 -9t64 -9q43 -8 68.5 -27.5t25.5 -60.5v-60h-84v-1427h-120q-23 0 -38.5 12.5t-15.5 34.5v1385q-29 2 -67.5 3t-79.5 1h-36q-22 0 -40 -4v-1432h-121q-23 0 -38 12.5t-15 34.5v684 q-80 10 -141.5 37t-104.5 75t-65.5 122t-22.5 180z" />
<glyph unicode="&#xb7;" horiz-adv-x="512" d="M119 696q0 70 32.5 100.5t104.5 30.5t104.5 -30.5t32.5 -100.5t-32.5 -99.5t-104.5 -29.5q-74 0 -105.5 29.5t-31.5 99.5z" />
<glyph unicode="&#xb8;" horiz-adv-x="888" d="M266 -307h66q70 0 94.5 10t24.5 45q0 27 -17.5 38t-60.5 21l-19 5q-23 4 -32 11t-9 25q0 12 4.5 24.5t20.5 55.5l33 82h108l-49 -123l29 -6q72 -16 103.5 -48t31.5 -93q0 -31 -9.5 -57.5t-34 -47t-66.5 -32t-107 -11.5q-27 0 -46.5 2.5t-37.5 8.5q-27 8 -27 37v53z" />
<glyph unicode="&#xb9;" horiz-adv-x="774" d="M127 1198v86l86 35q63 27 104 43l67 27q26 10 42 14t35 4q31 0 42 -19.5t11 -41.5v-771h-121q-20 0 -32.5 12.5t-12.5 30.5v605l-145 -54q-20 -8 -41 -8q-14 0 -24.5 9.5t-10.5 27.5z" />
<glyph unicode="&#xba;" horiz-adv-x="745" d="M84 1106q0 184 72.5 262t216.5 78q143 0 216 -78t73 -262q0 -186 -73 -264t-216 -78t-216 78t-73 264zM109 561v80h479q49 0 49 -47v-80h-481q-47 0 -47 47zM238 1106q0 -127 31.5 -173t103.5 -46t103.5 46t31.5 173q0 125 -32 172t-103 47q-72 0 -103.5 -47t-31.5 -172z " />
<glyph unicode="&#xbb;" horiz-adv-x="892" d="M76 920h141q35 0 48.5 -24t25.5 -48l147 -318l-188 -389h-127q-20 0 -30.5 12.5t-0.5 32.5l152 344zM446 920h142q18 0 32.5 -10.5t23.5 -26t17.5 -34t14.5 -32.5l133 -287l-188 -389h-127q-20 0 -30.5 12.5t-0.5 32.5l151 344z" />
<glyph unicode="&#xbc;" horiz-adv-x="1845" d="M127 1198v86l86 35q63 27 104 43l67 27q26 10 42 14t35 4q31 0 42 -19.5t11 -41.5v-771h-121q-20 0 -32.5 12.5t-12.5 30.5v605l-145 -54q-20 -8 -41 -8q-14 0 -24.5 9.5t-10.5 27.5zM426 35q0 12 11 28l807 1323h114q39 0 39 -34q0 -14 -8 -29l-807 -1323h-115 q-41 0 -41 35zM1143 232v72q18 55 52 122.5t81 137t106.5 134t128.5 115.5h123q45 0 45 -43v-464h43q43 0 43 -43v-74h-86v-187h-100q-45 0 -45 43v144h-346q-45 0 -45 43zM1276 306h258v372q-94 -80 -160.5 -180t-97.5 -192z" />
<glyph unicode="&#xbd;" horiz-adv-x="1845" d="M127 1198v86l86 35q63 27 104 43l67 27q26 10 42 14t35 4q31 0 42 -19.5t11 -41.5v-771h-121q-20 0 -32.5 12.5t-12.5 30.5v605l-145 -54q-20 -8 -41 -8q-14 0 -24.5 9.5t-10.5 27.5zM378 35q0 12 11 28l807 1323h114q39 0 39 -34q0 -14 -8 -29l-807 -1323h-115 q-41 0 -41 35zM1177 45v46q0 61 17.5 109t47.5 88t70 73t85 61q37 23 68.5 42.5t55 39t38 43t14.5 54.5q0 45 -33 71.5t-123 26.5q-59 0 -104 -8.5t-74 -8.5t-38 12.5t-9 32.5v64q39 14 105.5 25.5t133.5 11.5q51 0 104.5 -9.5t96.5 -34t70.5 -66.5t27.5 -107 q0 -72 -32.5 -123t-98.5 -96q-41 -29 -86 -55.5t-85 -57.5t-66.5 -66.5t-30.5 -80.5h358q47 0 48 -41v-89h-512q-20 0 -34 12.5t-14 30.5z" />
<glyph unicode="&#xbe;" horiz-adv-x="1845" d="M92 637v72q53 -8 107.5 -13.5t103.5 -5.5q115 0 152 33t37 88q0 66 -39 91.5t-121 25.5h-58q-47 0 -47 43v84h115q43 0 69.5 11t41 27.5t19.5 37t5 38.5q0 53 -35.5 78t-117.5 25q-51 0 -100.5 -6t-71.5 -6q-29 0 -38.5 11t-9.5 32v63q39 14 102.5 24.5t135.5 10.5 q154 0 222.5 -57.5t68.5 -157.5q0 -66 -26.5 -110t-80.5 -72q66 -33 95.5 -80t29.5 -119q0 -123 -79.5 -183.5t-233.5 -60.5q-20 0 -48 1t-55.5 4t-53 7.5t-44.5 10.5q-29 10 -37 22.5t-8 30.5zM462 35q0 12 11 28l807 1323h114q39 0 39 -34q0 -14 -8 -29l-807 -1323h-115 q-41 0 -41 35zM1143 232v72q18 55 52 122.5t81 137t106.5 134t128.5 115.5h123q45 0 45 -43v-464h43q43 0 43 -43v-74h-86v-187h-100q-45 0 -45 43v144h-346q-45 0 -45 43zM1276 306h258v372q-94 -80 -160.5 -180t-97.5 -192z" />
<glyph unicode="&#xbf;" horiz-adv-x="872" d="M86 -31q0 61 12.5 110.5t36 91.5t55 78t72.5 73q57 53 93 88.5t56.5 68.5t27.5 70t12 94h104q59 0 59 -102q0 -47 -10 -84t-31.5 -72t-55.5 -70.5t-79 -78.5q-41 -41 -68.5 -70t-44 -54.5t-23.5 -51t-7 -60.5q0 -100 54 -142t169 -42q76 0 139.5 11t92.5 11q27 0 35 -12 t8 -35v-100q-59 -23 -140.5 -41.5t-183.5 -18.5q-76 0 -144.5 15.5t-121.5 53.5t-85 103.5t-32 165.5zM377 952q0 72 32.5 101.5t104.5 29.5q74 0 105.5 -29.5t31.5 -101.5q0 -70 -32.5 -99.5t-104.5 -29.5t-104.5 29.5t-32.5 99.5z" />
<glyph unicode="&#xc0;" horiz-adv-x="1132" d="M66 51q6 61 18 121q37 199 82 380t92 340t95 292t91 235h205q25 0 37 -10t21 -33q43 -104 94 -249.5t101 -323.5t95 -382t78 -421h-174q-43 0 -49 47q-14 92 -29.5 177t-31.5 171h-457q-20 -98 -36.5 -198.5t-31.5 -196.5h-157q-45 0 -43 51zM360 563h404 q-47 197 -99.5 366t-103.5 314q-49 -145 -101.5 -314t-99.5 -366zM299 1808h203q29 0 41 -12t33 -47q29 -49 56.5 -105.5t49.5 -117.5h-123q-23 0 -36 8t-27 27z" />
<glyph unicode="&#xc1;" horiz-adv-x="1132" d="M66 51q6 61 18 121q37 199 82 380t92 340t95 292t91 235h205q25 0 37 -10t21 -33q43 -104 94 -249.5t101 -323.5t95 -382t78 -421h-174q-43 0 -49 47q-14 92 -29.5 177t-31.5 171h-457q-20 -98 -36.5 -198.5t-31.5 -196.5h-157q-45 0 -43 51zM360 563h404 q-47 197 -99.5 366t-103.5 314q-49 -145 -101.5 -314t-99.5 -366zM461 1571q4 12 17.5 38.5t33 60.5t41 71t43.5 67h170q37 0 37 -28q0 -25 -25 -51l-178 -203h-110q-45 0 -29 45z" />
<glyph unicode="&#xc2;" horiz-adv-x="1132" d="M66 51q6 61 18 121q37 199 82 380t92 340t95 292t91 235h205q25 0 37 -10t21 -33q43 -104 94 -249.5t101 -323.5t95 -382t78 -421h-174q-43 0 -49 47q-14 92 -29.5 177t-31.5 171h-457q-20 -98 -36.5 -198.5t-31.5 -196.5h-157q-45 0 -43 51zM360 563h404 q-47 197 -99.5 366t-103.5 314q-49 -145 -101.5 -314t-99.5 -366zM309 1543.5q-2 17.5 9 37.5q6 12 23.5 38t40 58.5t47 67.5t46.5 63h148q23 0 36 -8t23 -22q14 -18 35.5 -49t44.5 -67t44.5 -72t37.5 -64h-123q-23 0 -34 7t-27 30l-95 125l-122 -162h-103q-29 0 -31 17.5z " />
<glyph unicode="&#xc3;" horiz-adv-x="1132" d="M66 51q6 61 18 121q37 199 82 380t92 340t95 292t91 235h205q25 0 37 -10t21 -33q43 -104 94 -249.5t101 -323.5t95 -382t78 -421h-174q-43 0 -49 47q-14 92 -29.5 177t-31.5 171h-457q-20 -98 -36.5 -198.5t-31.5 -196.5h-157q-45 0 -43 51zM360 563h404 q-47 197 -99.5 366t-103.5 314q-49 -145 -101.5 -314t-99.5 -366zM252 1589q0 88 41 144.5t131 56.5q57 0 95 -20.5t71 -45.5q25 -18 41 -29.5t26.5 -17.5t19.5 -8t22 -2q39 0 46 37t7 82h90q23 0 30 -11.5t7 -37.5q0 -88 -41 -144.5t-131 -56.5q-57 0 -95 20.5t-71 45.5 q-25 18 -41.5 29t-26.5 17.5t-19 8.5t-22 2q-20 0 -30.5 -10.5t-15.5 -26.5t-6 -37.5t-1 -44.5h-90q-23 0 -30 11t-7 38z" />
<glyph unicode="&#xc4;" horiz-adv-x="1132" d="M66 51q6 61 18 121q37 199 82 380t92 340t95 292t91 235h205q25 0 37 -10t21 -33q43 -104 94 -249.5t101 -323.5t95 -382t78 -421h-174q-43 0 -49 47q-14 92 -29.5 177t-31.5 171h-457q-20 -98 -36.5 -198.5t-31.5 -196.5h-157q-45 0 -43 51zM360 563h404 q-47 197 -99.5 366t-103.5 314q-49 -145 -101.5 -314t-99.5 -366zM256 1663q0 59 27.5 85t91.5 26q61 0 89 -26t28 -85t-28 -85t-89 -26q-63 0 -91 26t-28 85zM639 1663q0 59 27.5 85t91.5 26q61 0 89 -26t28 -85t-28 -85t-89 -26q-63 0 -91 26t-28 85z" />
<glyph unicode="&#xc5;" horiz-adv-x="1132" d="M66 51q6 61 18 121q37 199 82 380t92 340t95 292t91 235h205q25 0 37 -10t21 -33q43 -104 94 -249.5t101 -323.5t95 -382t78 -421h-174q-43 0 -49 47q-14 92 -29.5 177t-31.5 171h-457q-20 -98 -36.5 -198.5t-31.5 -196.5h-157q-45 0 -43 51zM360 563h404 q-47 197 -99.5 366t-103.5 314q-49 -145 -101.5 -314t-99.5 -366zM357 1686q0 88 51 142t157 54t157.5 -54t51.5 -142q0 -90 -51 -144.5t-158 -54.5q-106 0 -157 54.5t-51 144.5zM463 1686q0 -102 102 -103q102 0 103 103q0 100 -103 100q-102 0 -102 -100z" />
<glyph unicode="&#xc6;" horiz-adv-x="1634" d="M66 47q8 31 16 60.5t18 58.5q61 193 134 373t149 340.5t152.5 298t146.5 241.5h799q49 0 49 -47v-137h-541v-424h438q49 0 50 -47v-139h-488v-441h512q51 0 51 -47v-137h-718q-49 0 -50 47v348h-397q-37 -104 -69.5 -203.5t-57.5 -191.5h-154q-23 0 -33.5 13.5t-6.5 33.5 zM442 571h342v689q-104 -170 -190 -344.5t-152 -344.5z" />
<glyph unicode="&#xc7;" horiz-adv-x="1030" d="M115 709q0 197 28.5 336t91 227t161 128t239.5 40q72 0 148.5 -11.5t119.5 -29.5q25 -10 34 -26.5t9 -43.5v-96q-59 8 -132 15t-150 7q-92 0 -156 -25.5t-102.5 -87t-55 -165t-16.5 -258.5q0 -172 20.5 -280.5t60.5 -169t101.5 -83t145.5 -22.5q86 0 149 10t96 10 q51 0 51 -49v-100q-53 -23 -127.5 -38t-171.5 -20l-34 -90l28 -6q72 -16 103.5 -48t31.5 -93q0 -31 -9 -57.5t-33.5 -47t-66.5 -32t-108 -11.5q-27 0 -46 2.5t-38 8.5q-27 8 -26 37v53h65q70 0 94.5 10t24.5 43q0 29 -17.5 40t-60.5 21l-18 5q-23 4 -32 11t-9 27 q0 10 4 23.5t20 54.5l21 54q-117 10 -200 57t-136 135t-77.5 220.5t-24.5 314.5z" />
<glyph unicode="&#xc8;" horiz-adv-x="1050" d="M143 47v1372h754q47 0 47 -47v-129h-586v-436h486q47 0 47 -47v-131h-533v-453h562q23 0 36 -12t13 -35v-129h-776q-50 0 -50 47zM276 1808h203q29 0 41 -12t33 -47q29 -49 56.5 -105.5t49.5 -117.5h-123q-23 0 -36 8t-27 27z" />
<glyph unicode="&#xc9;" horiz-adv-x="1050" d="M143 47v1372h754q47 0 47 -47v-129h-586v-436h486q47 0 47 -47v-131h-533v-453h562q23 0 36 -12t13 -35v-129h-776q-50 0 -50 47zM438 1571q4 12 17.5 38.5t33 60.5t41 71t43.5 67h170q37 0 37 -28q0 -25 -25 -51l-178 -203h-110q-45 0 -29 45z" />
<glyph unicode="&#xca;" horiz-adv-x="1050" d="M143 47v1372h754q47 0 47 -47v-129h-586v-436h486q47 0 47 -47v-131h-533v-453h562q23 0 36 -12t13 -35v-129h-776q-50 0 -50 47zM286 1543.5q-2 17.5 9 37.5q6 12 23.5 38t40 58.5t47 67.5t46.5 63h148q23 0 36 -8t23 -22q14 -18 35.5 -49t44.5 -67t44.5 -72t37.5 -64 h-123q-23 0 -34 7t-27 30l-95 125l-122 -162h-103q-29 0 -31 17.5z" />
<glyph unicode="&#xcb;" horiz-adv-x="1050" d="M143 47v1372h754q47 0 47 -47v-129h-586v-436h486q47 0 47 -47v-131h-533v-453h562q23 0 36 -12t13 -35v-129h-776q-50 0 -50 47zM233 1663q0 59 27.5 85t91.5 26q61 0 89 -26t28 -85t-28 -85t-89 -26q-63 0 -91 26t-28 85zM616 1663q0 59 27.5 85t91.5 26q61 0 89 -26 t28 -85t-28 -85t-89 -26q-63 0 -91 26t-28 85z" />
<glyph unicode="&#xcc;" horiz-adv-x="501" d="M143 47v1372h166q49 0 49 -47v-1372h-165q-50 0 -50 47zM-12 1808h203q29 0 41 -12t33 -47q29 -49 56.5 -105.5t49.5 -117.5h-123q-23 0 -36 8t-27 27z" />
<glyph unicode="&#xcd;" horiz-adv-x="501" d="M143 47v1372h166q49 0 49 -47v-1372h-165q-50 0 -50 47zM147 1571q4 12 17.5 38.5t33 60.5t41 71t43.5 67h170q37 0 37 -28q0 -25 -25 -51l-178 -203h-110q-45 0 -29 45z" />
<glyph unicode="&#xce;" horiz-adv-x="501" d="M143 47v1372h166q49 0 49 -47v-1372h-165q-50 0 -50 47zM-2 1543.5q-2 17.5 9 37.5q6 12 23.5 38t40 58.5t47 67.5t46.5 63h148q23 0 36 -8t23 -22q14 -18 35.5 -49t44.5 -67t44.5 -72t37.5 -64h-123q-23 0 -34 7t-27 30l-95 125l-122 -162h-103q-29 0 -31 17.5z" />
<glyph unicode="&#xcf;" horiz-adv-x="501" d="M143 47v1372h166q49 0 49 -47v-1372h-165q-50 0 -50 47zM-55 1663q0 59 27.5 85t91.5 26q61 0 89 -26t28 -85t-28 -85t-89 -26q-63 0 -91 26t-28 85zM328 1663q0 59 27.5 85t91.5 26q61 0 89 -26t28 -85t-28 -85t-89 -26q-63 0 -91 26t-28 85z" />
<glyph unicode="&#xd0;" horiz-adv-x="1286" d="M41 700v105h156v590q94 16 210.5 27.5t215.5 11.5q143 0 247.5 -37t171 -122t98 -222.5t31.5 -339.5q0 -197 -31.5 -332t-97 -220t-169 -123t-246.5 -38h-381q-49 0 -49 47v610h-111q-45 0 -45 43zM412 172h194q88 0 153.5 20.5t108.5 79t63.5 166t20.5 279.5 q0 166 -17 271.5t-57 165.5t-104.5 84t-159.5 24q-53 0 -108 -4.5t-94 -10.5v-442h198q47 0 47 -43v-105h-245v-485z" />
<glyph unicode="&#xd1;" horiz-adv-x="1255" d="M143 47v1372h172q23 0 35 -13t25 -34q27 -47 66.5 -118.5t88 -157.5t99.5 -182.5t101 -191.5t96 -184t81 -161v1042h156q49 0 49 -47v-1372h-170q-35 0 -55 47q-33 70 -78 160t-96 188.5t-104.5 199.5t-102.5 192.5t-90 166t-68 121.5v-1075h-155q-50 0 -50 47zM309 1589 q0 88 41 144.5t131 56.5q57 0 95 -20.5t71 -45.5q25 -18 41 -29.5t26.5 -17.5t19.5 -8t22 -2q39 0 46 37t7 82h90q23 0 30 -11.5t7 -37.5q0 -88 -41 -144.5t-131 -56.5q-57 0 -95 20.5t-71 45.5q-25 18 -41.5 29t-26.5 17.5t-19 8.5t-22 2q-20 0 -30.5 -10.5t-15.5 -26.5 t-6 -37.5t-1 -44.5h-90q-23 0 -30 11t-7 38z" />
<glyph unicode="&#xd2;" horiz-adv-x="1255" d="M115 709q0 227 36.5 370.5t104.5 223t162 109.5t209 30t210 -30t162.5 -109.5t104.5 -223t37 -370.5t-37 -370.5t-104.5 -223.5t-163 -110t-209.5 -30q-115 0 -209 30t-162 110t-104.5 223.5t-36.5 370.5zM334 709q0 -158 13 -263.5t47 -170t90.5 -92t142.5 -27.5 t142 27.5t90 92t48.5 170t14.5 263.5t-14.5 263t-48.5 169.5t-90 92.5t-142 28t-142.5 -28t-90.5 -92.5t-47 -169.5t-13 -263zM360 1808h203q29 0 41 -12t33 -47q29 -49 56.5 -105.5t49.5 -117.5h-123q-23 0 -36 8t-27 27z" />
<glyph unicode="&#xd3;" horiz-adv-x="1255" d="M115 709q0 227 36.5 370.5t104.5 223t162 109.5t209 30t210 -30t162.5 -109.5t104.5 -223t37 -370.5t-37 -370.5t-104.5 -223.5t-163 -110t-209.5 -30q-115 0 -209 30t-162 110t-104.5 223.5t-36.5 370.5zM334 709q0 -158 13 -263.5t47 -170t90.5 -92t142.5 -27.5 t142 27.5t90 92t48.5 170t14.5 263.5t-14.5 263t-48.5 169.5t-90 92.5t-142 28t-142.5 -28t-90.5 -92.5t-47 -169.5t-13 -263zM522 1571q4 12 17.5 38.5t33 60.5t41 71t43.5 67h170q37 0 37 -28q0 -25 -25 -51l-178 -203h-110q-45 0 -29 45z" />
<glyph unicode="&#xd4;" horiz-adv-x="1255" d="M115 709q0 227 36.5 370.5t104.5 223t162 109.5t209 30t210 -30t162.5 -109.5t104.5 -223t37 -370.5t-37 -370.5t-104.5 -223.5t-163 -110t-209.5 -30q-115 0 -209 30t-162 110t-104.5 223.5t-36.5 370.5zM334 709q0 -158 13 -263.5t47 -170t90.5 -92t142.5 -27.5 t142 27.5t90 92t48.5 170t14.5 263.5t-14.5 263t-48.5 169.5t-90 92.5t-142 28t-142.5 -28t-90.5 -92.5t-47 -169.5t-13 -263zM370 1543.5q-2 17.5 9 37.5q6 12 23.5 38t40 58.5t47 67.5t46.5 63h148q23 0 36 -8t23 -22q14 -18 35.5 -49t44.5 -67t44.5 -72t37.5 -64h-123 q-23 0 -34 7t-27 30l-95 125l-122 -162h-103q-29 0 -31 17.5z" />
<glyph unicode="&#xd5;" horiz-adv-x="1255" d="M115 709q0 227 36.5 370.5t104.5 223t162 109.5t209 30t210 -30t162.5 -109.5t104.5 -223t37 -370.5t-37 -370.5t-104.5 -223.5t-163 -110t-209.5 -30q-115 0 -209 30t-162 110t-104.5 223.5t-36.5 370.5zM334 709q0 -158 13 -263.5t47 -170t90.5 -92t142.5 -27.5 t142 27.5t90 92t48.5 170t14.5 263.5t-14.5 263t-48.5 169.5t-90 92.5t-142 28t-142.5 -28t-90.5 -92.5t-47 -169.5t-13 -263zM313 1589q0 88 41 144.5t131 56.5q57 0 95 -20.5t71 -45.5q25 -18 41 -29.5t26.5 -17.5t19.5 -8t22 -2q39 0 46 37t7 82h90q23 0 30 -11.5 t7 -37.5q0 -88 -41 -144.5t-131 -56.5q-57 0 -95 20.5t-71 45.5q-25 18 -41.5 29t-26.5 17.5t-19 8.5t-22 2q-20 0 -30.5 -10.5t-15.5 -26.5t-6 -37.5t-1 -44.5h-90q-23 0 -30 11t-7 38z" />
<glyph unicode="&#xd6;" horiz-adv-x="1255" d="M115 709q0 227 36.5 370.5t104.5 223t162 109.5t209 30t210 -30t162.5 -109.5t104.5 -223t37 -370.5t-37 -370.5t-104.5 -223.5t-163 -110t-209.5 -30q-115 0 -209 30t-162 110t-104.5 223.5t-36.5 370.5zM334 709q0 -158 13 -263.5t47 -170t90.5 -92t142.5 -27.5 t142 27.5t90 92t48.5 170t14.5 263.5t-14.5 263t-48.5 169.5t-90 92.5t-142 28t-142.5 -28t-90.5 -92.5t-47 -169.5t-13 -263zM317 1663q0 59 27.5 85t91.5 26q61 0 89 -26t28 -85t-28 -85t-89 -26q-63 0 -91 26t-28 85zM700 1663q0 59 27.5 85t91.5 26q61 0 89 -26t28 -85 t-28 -85t-89 -26q-63 0 -91 26t-28 85z" />
<glyph unicode="&#xd7;" d="M178 946l92 90q33 33 68 0l211 -213l244 246l92 -90q16 -16 15 -33.5t-17 -34.5l-209 -213l246 -245l-91 -91q-33 -33 -69 0l-211 213l-246 -243l-90 90q-33 33 0 67l211 209z" />
<glyph unicode="&#xd8;" horiz-adv-x="1255" d="M113.5 -57.5q-7.5 14.5 3.5 32.5l104 187q-51 86 -78.5 218t-27.5 329q0 227 36.5 370.5t104.5 223t161 109.5t206 30q96 0 173.5 -17.5t141.5 -64.5l76 127h96q20 0 27.5 -13.5t-2.5 -29.5l-105 -187q53 -84 82 -217t29 -333q0 -225 -37 -367.5t-104.5 -223.5t-162 -111 t-208.5 -30q-94 0 -173 18.5t-143 65.5l-75 -131h-95q-22 0 -29.5 14.5zM334 707q0 -100 5 -181.5t19 -136.5l476 795q-35 43 -86.5 60.5t-120.5 17.5q-86 0 -142.5 -27t-90.5 -91.5t-47 -170.5t-13 -266zM420 233q35 -43 85 -60t120 -17q86 0 143 27.5t91 91t48.5 169 t14.5 261.5q0 109 -6.5 192.5t-20.5 136.5z" />
<glyph unicode="&#xd9;" horiz-adv-x="1216" d="M135 502v917h166q49 0 49 -47v-893q0 -74 11.5 -133t40 -101t78.5 -63.5t130 -21.5q78 0 127 21.5t78 62.5t40 100t11 137v938h166q23 0 36 -12t13 -35v-870q0 -270 -109.5 -397.5t-359.5 -127.5q-115 0 -204 26t-149 86.5t-92 160.5t-32 252zM342 1808h203q29 0 41 -12 t33 -47q29 -49 56.5 -105.5t49.5 -117.5h-123q-23 0 -36 8t-27 27z" />
<glyph unicode="&#xda;" horiz-adv-x="1216" d="M135 502v917h166q49 0 49 -47v-893q0 -74 11.5 -133t40 -101t78.5 -63.5t130 -21.5q78 0 127 21.5t78 62.5t40 100t11 137v938h166q23 0 36 -12t13 -35v-870q0 -270 -109.5 -397.5t-359.5 -127.5q-115 0 -204 26t-149 86.5t-92 160.5t-32 252zM504 1571q4 12 17.5 38.5 t33 60.5t41 71t43.5 67h170q37 0 37 -28q0 -25 -25 -51l-178 -203h-110q-45 0 -29 45z" />
<glyph unicode="&#xdb;" horiz-adv-x="1216" d="M135 502v917h166q49 0 49 -47v-893q0 -74 11.5 -133t40 -101t78.5 -63.5t130 -21.5q78 0 127 21.5t78 62.5t40 100t11 137v938h166q23 0 36 -12t13 -35v-870q0 -270 -109.5 -397.5t-359.5 -127.5q-115 0 -204 26t-149 86.5t-92 160.5t-32 252zM352 1543.5q-2 17.5 9 37.5 q6 12 23.5 38t40 58.5t47 67.5t46.5 63h148q23 0 36 -8t23 -22q14 -18 35.5 -49t44.5 -67t44.5 -72t37.5 -64h-123q-23 0 -34 7t-27 30l-95 125l-122 -162h-103q-29 0 -31 17.5z" />
<glyph unicode="&#xdc;" horiz-adv-x="1216" d="M135 502v917h166q49 0 49 -47v-893q0 -74 11.5 -133t40 -101t78.5 -63.5t130 -21.5q78 0 127 21.5t78 62.5t40 100t11 137v938h166q23 0 36 -12t13 -35v-870q0 -270 -109.5 -397.5t-359.5 -127.5q-115 0 -204 26t-149 86.5t-92 160.5t-32 252zM299 1663q0 59 27.5 85 t91.5 26q61 0 89 -26t28 -85t-28 -85t-89 -26q-63 0 -91 26t-28 85zM682 1663q0 59 27.5 85t91.5 26q61 0 89 -26t28 -85t-28 -85t-89 -26q-63 0 -91 26t-28 85z" />
<glyph unicode="&#xdd;" horiz-adv-x="1075" d="M39 1419h186q31 0 40 -13t18 -42q18 -66 44.5 -141.5t58.5 -158.5t71 -170t86 -173q47 88 91 187.5t80 194.5t62.5 178t36.5 138h160q29 0 41 -19q7 -11 6 -24q0 -11 -4 -24q-37 -117 -76 -219.5t-84 -199.5t-97 -193.5t-114 -200.5v-539h-166q-49 0 -49 47v492 q-70 117 -127 224t-104 214.5t-87 216t-73 225.5zM434 1571q4 12 17.5 38.5t33 60.5t41 71t43.5 67h170q37 0 37 -28q0 -25 -25 -51l-178 -203h-110q-45 0 -29 45z" />
<glyph unicode="&#xde;" horiz-adv-x="1114" d="M143 47v1372h162q23 0 36 -12t13 -35v-198q29 4 89.5 10t134.5 6q231 0 347.5 -100.5t116.5 -346.5q0 -244 -110.5 -354t-317.5 -110q-55 0 -124.5 7t-135.5 19v-305h-161q-50 0 -50 47zM354 473q53 -10 107.5 -17t107.5 -7q66 0 115 13t81 46t48 87t16 138 q0 88 -17 143.5t-52 86t-86 41t-117 10.5q-55 0 -111.5 -5t-91.5 -12v-524z" />
<glyph unicode="&#xdf;" horiz-adv-x="1118" d="M115 47v1006q0 96 19.5 177t68.5 139t135 90t219 32q193 0 303.5 -74t110.5 -233q0 -49 -10.5 -85t-30 -68t-47 -62.5t-62.5 -65.5q-49 -51 -73.5 -78.5t-24.5 -62.5q0 -41 38 -68.5t113 -79.5q33 -23 64 -49t55.5 -62t39 -85t14.5 -117q0 -160 -87.5 -237.5 t-252.5 -77.5q-53 0 -101.5 7t-79.5 19q-41 16 -41 58v88q31 -4 83.5 -7.5t82.5 -3.5q111 0 152 40t41 118q0 37 -8.5 63.5t-24.5 48t-42 40t-60 41.5q-47 29 -82 52t-59.5 49t-37 57.5t-12.5 78.5q0 80 36 132.5t99 115.5q35 35 65 75t30 107q0 92 -56.5 125t-140.5 33 q-123 0 -172 -58.5t-49 -177.5v-1087h-166q-49 0 -49 47z" />
<glyph unicode="&#xe0;" horiz-adv-x="1019" d="M84 313q0 96 29.5 160t84 101.5t128 53t159.5 15.5h211v70q0 106 -55 145t-188 39q-90 0 -162 -9t-94 -9q-27 0 -38.5 13t-11.5 34v88q72 23 162 37t185 14q117 0 194.5 -25.5t124.5 -72.5t66.5 -115t19.5 -150v-702h-125q-35 0 -43 15.5t-12 35.5l-8 62 q-53 -51 -128 -91t-184 -40q-160 0 -237.5 87.5t-77.5 243.5zM270 319q0 -94 45 -137t138 -43q82 0 141 32t102 73v254h-217q-61 0 -102 -13.5t-64.5 -37t-33 -56.5t-9.5 -72zM249 1477h191q27 0 41 -9.5t24 -35.5q51 -123 105 -258h-113q-41 0 -63 36z" />
<glyph unicode="&#xe1;" horiz-adv-x="1019" d="M84 313q0 96 29.5 160t84 101.5t128 53t159.5 15.5h211v70q0 106 -55 145t-188 39q-90 0 -162 -9t-94 -9q-27 0 -38.5 13t-11.5 34v88q72 23 162 37t185 14q117 0 194.5 -25.5t124.5 -72.5t66.5 -115t19.5 -150v-702h-125q-35 0 -43 15.5t-12 35.5l-8 62 q-53 -51 -128 -91t-184 -40q-160 0 -237.5 87.5t-77.5 243.5zM270 319q0 -94 45 -137t138 -43q82 0 141 32t102 73v254h-217q-61 0 -102 -13.5t-64.5 -37t-33 -56.5t-9.5 -72zM407 1187q-8 13 2 34q29 70 59.5 133t65.5 123h168q35 0 35 -27q0 -14 -8.5 -28.5t-20.5 -30.5 l-168 -217h-104q-21 0 -29 13z" />
<glyph unicode="&#xe2;" horiz-adv-x="1019" d="M84 313q0 96 29.5 160t84 101.5t128 53t159.5 15.5h211v70q0 106 -55 145t-188 39q-90 0 -162 -9t-94 -9q-27 0 -38.5 13t-11.5 34v88q72 23 162 37t185 14q117 0 194.5 -25.5t124.5 -72.5t66.5 -115t19.5 -150v-702h-125q-35 0 -43 15.5t-12 35.5l-8 62 q-53 -51 -128 -91t-184 -40q-160 0 -237.5 87.5t-77.5 243.5zM270 319q0 -94 45 -137t138 -43q82 0 141 32t102 73v254h-217q-61 0 -102 -13.5t-64.5 -37t-33 -56.5t-9.5 -72zM255.5 1187q-6.5 13 4.5 34q35 68 73.5 128t85.5 128h142q33 0 55 -39q14 -25 34.5 -57.5 t41 -67.5t40 -72t34.5 -67h-111q-23 0 -34 7t-25 29l-93 140l-116 -176h-103q-22 0 -28.5 13z" />
<glyph unicode="&#xe3;" horiz-adv-x="1019" d="M84 313q0 96 29.5 160t84 101.5t128 53t159.5 15.5h211v70q0 106 -55 145t-188 39q-90 0 -162 -9t-94 -9q-27 0 -38.5 13t-11.5 34v88q72 23 162 37t185 14q117 0 194.5 -25.5t124.5 -72.5t66.5 -115t19.5 -150v-702h-125q-35 0 -43 15.5t-12 35.5l-8 62 q-53 -51 -128 -91t-184 -40q-160 0 -237.5 87.5t-77.5 243.5zM270 319q0 -94 45 -137t138 -43q82 0 141 32t102 73v254h-217q-61 0 -102 -13.5t-64.5 -37t-33 -56.5t-9.5 -72zM190 1241q0 88 41 144.5t131 56.5q57 0 95 -20.5t71 -45.5q25 -18 41 -29.5t26.5 -17.5t19.5 -8 t22 -2q39 0 46 37t7 82h92q23 0 29 -11.5t6 -37.5q0 -88 -41 -144.5t-131 -56.5q-57 0 -95 20.5t-71 44.5q-25 18 -41.5 29.5t-26.5 18t-19 8.5t-22 2q-20 0 -30.5 -10.5t-15.5 -27t-6 -38t-1 -43.5h-92q-23 0 -29 11t-6 38z" />
<glyph unicode="&#xe4;" horiz-adv-x="1019" d="M84 313q0 96 29.5 160t84 101.5t128 53t159.5 15.5h211v70q0 106 -55 145t-188 39q-90 0 -162 -9t-94 -9q-27 0 -38.5 13t-11.5 34v88q72 23 162 37t185 14q117 0 194.5 -25.5t124.5 -72.5t66.5 -115t19.5 -150v-702h-125q-35 0 -43 15.5t-12 35.5l-8 62 q-53 -51 -128 -91t-184 -40q-160 0 -237.5 87.5t-77.5 243.5zM270 319q0 -94 45 -137t138 -43q82 0 141 32t102 73v254h-217q-61 0 -102 -13.5t-64.5 -37t-33 -56.5t-9.5 -72zM194 1319q0 59 27.5 85t91.5 26q61 0 89 -26t28 -85t-28 -85t-89 -26q-63 0 -91 26t-28 85z M577 1319q0 59 27.5 85t91.5 26q61 0 89 -26t28 -85t-28 -85t-89 -26q-63 0 -91 26t-28 85z" />
<glyph unicode="&#xe5;" horiz-adv-x="1019" d="M84 313q0 96 29.5 160t84 101.5t128 53t159.5 15.5h211v70q0 106 -55 145t-188 39q-90 0 -162 -9t-94 -9q-27 0 -38.5 13t-11.5 34v88q72 23 162 37t185 14q117 0 194.5 -25.5t124.5 -72.5t66.5 -115t19.5 -150v-702h-125q-35 0 -43 15.5t-12 35.5l-8 62 q-53 -51 -128 -91t-184 -40q-160 0 -237.5 87.5t-77.5 243.5zM270 319q0 -94 45 -137t138 -43q82 0 141 32t102 73v254h-217q-61 0 -102 -13.5t-64.5 -37t-33 -56.5t-9.5 -72zM295 1366q0 86 51 139.5t159 53.5q104 0 155.5 -55.5t51.5 -135.5q0 -98 -51 -151.5t-160 -53.5 q-104 0 -155 55.5t-51 147.5zM401 1362q0 -102 102 -102t103 102q0 100 -103 100q-102 0 -102 -100z" />
<glyph unicode="&#xe6;" horiz-adv-x="1552" d="M84 315q0 98 29.5 160t87 96.5t138.5 47t183 12.5h152v80q0 104 -52.5 145t-181.5 41q-41 0 -79.5 -3t-71.5 -6t-57.5 -6t-36.5 -3q-25 0 -36.5 13t-11.5 34v88q70 23 162 37t164 14q117 0 197 -40t114 -110q90 152 308 152q106 0 175.5 -34t110.5 -91t58.5 -135 t17.5 -166q0 -63 -6 -111.5t-16 -78.5h-568q4 -86 15.5 -144.5t41 -95.5t83 -52.5t139.5 -15.5q80 0 143.5 8.5t85.5 8.5q29 0 40 -14.5t11 -34.5v-82q-47 -20 -132 -36t-183 -16q-113 0 -200 30t-140 106q-70 -61 -150.5 -96t-191.5 -35q-74 0 -137.5 17t-108.5 57 t-70.5 103.5t-25.5 155.5zM264 322q0 -53 14.5 -89t40 -56.5t60.5 -29t78 -8.5q88 0 144 29t99 65q-16 49 -21 107.5t-5 130.5v27h-209q-66 0 -104.5 -16.5t-60 -41t-29 -56t-7.5 -62.5zM864 588h408v67q-2 129 -42 191.5t-149 62.5q-66 0 -107.5 -22.5t-65 -63.5t-33 -100 t-11.5 -135z" />
<glyph unicode="&#xe7;" horiz-adv-x="868" d="M100 518q0 287 101.5 417t312.5 130q70 0 137.5 -11.5t98.5 -25.5q23 -10 32 -26.5t9 -38.5v-89q-66 10 -125.5 15.5t-102.5 5.5q-70 0 -118 -17.5t-78.5 -60.5t-44 -113.5t-13.5 -175.5q0 -117 16.5 -190.5t47 -115.5t76 -57t104.5 -15t113.5 7t78.5 7q49 0 50 -49v-86 q-45 -18 -111 -32.5t-141 -19.5l-35 -90l29 -6q72 -16 103.5 -48t31.5 -93q0 -31 -9.5 -57.5t-34 -47t-66.5 -32t-107 -11.5q-27 0 -46.5 2.5t-37.5 8.5q-27 8 -27 37v53h66q70 0 94 10t24 45q0 27 -17 38t-60 21l-19 5q-23 4 -32 11t-9 25q0 12 4 24.5t21 55.5l20 56 q-184 23 -260 160.5t-76 373.5z" />
<glyph unicode="&#xe8;" horiz-adv-x="1015" d="M100 518q0 147 27 251.5t81 171.5t134 96.5t186 29.5q119 0 195 -34t119 -91t59.5 -134t16.5 -165q0 -59 -6.5 -114.5t-16.5 -84.5h-598q4 -82 18.5 -139t48 -93t91 -52.5t147.5 -16.5q80 0 145.5 8.5t90.5 8.5q47 0 47 -45v-86q-49 -20 -134 -36t-196 -16 q-117 0 -203 29t-142 93.5t-83 168t-27 250.5zM297 590h432q2 20 2 31v26q0 131 -40 197.5t-156 66.5q-70 0 -115 -22.5t-71.5 -63.5t-38 -101t-13.5 -134zM262 1477h191q27 0 41 -9.5t24 -35.5q51 -123 105 -258h-113q-41 0 -63 36z" />
<glyph unicode="&#xe9;" horiz-adv-x="1015" d="M100 518q0 147 27 251.5t81 171.5t134 96.5t186 29.5q119 0 195 -34t119 -91t59.5 -134t16.5 -165q0 -59 -6.5 -114.5t-16.5 -84.5h-598q4 -82 18.5 -139t48 -93t91 -52.5t147.5 -16.5q80 0 145.5 8.5t90.5 8.5q47 0 47 -45v-86q-49 -20 -134 -36t-196 -16 q-117 0 -203 29t-142 93.5t-83 168t-27 250.5zM297 590h432q2 20 2 31v26q0 131 -40 197.5t-156 66.5q-70 0 -115 -22.5t-71.5 -63.5t-38 -101t-13.5 -134zM424 1187q-8 13 2 34q29 70 59.5 133t65.5 123h168q35 0 35 -27q0 -14 -8.5 -28.5t-20.5 -30.5l-168 -217h-104 q-21 0 -29 13z" />
<glyph unicode="&#xea;" horiz-adv-x="1015" d="M100 518q0 147 27 251.5t81 171.5t134 96.5t186 29.5q119 0 195 -34t119 -91t59.5 -134t16.5 -165q0 -59 -6.5 -114.5t-16.5 -84.5h-598q4 -82 18.5 -139t48 -93t91 -52.5t147.5 -16.5q80 0 145.5 8.5t90.5 8.5q47 0 47 -45v-86q-49 -20 -134 -36t-196 -16 q-117 0 -203 29t-142 93.5t-83 168t-27 250.5zM297 590h432q2 20 2 31v26q0 131 -40 197.5t-156 66.5q-70 0 -115 -22.5t-71.5 -63.5t-38 -101t-13.5 -134zM272.5 1187q-6.5 13 4.5 34q35 68 73.5 128t85.5 128h142q33 0 55 -39q14 -25 34.5 -57.5t41 -67.5t40 -72t34.5 -67 h-111q-23 0 -34 7t-25 29l-93 140l-116 -176h-103q-22 0 -28.5 13z" />
<glyph unicode="&#xeb;" horiz-adv-x="1015" d="M100 518q0 147 27 251.5t81 171.5t134 96.5t186 29.5q119 0 195 -34t119 -91t59.5 -134t16.5 -165q0 -59 -6.5 -114.5t-16.5 -84.5h-598q4 -82 18.5 -139t48 -93t91 -52.5t147.5 -16.5q80 0 145.5 8.5t90.5 8.5q47 0 47 -45v-86q-49 -20 -134 -36t-196 -16 q-117 0 -203 29t-142 93.5t-83 168t-27 250.5zM297 590h432q2 20 2 31v26q0 131 -40 197.5t-156 66.5q-70 0 -115 -22.5t-71.5 -63.5t-38 -101t-13.5 -134zM211 1319q0 59 27.5 85t91.5 26q61 0 89 -26t28 -85t-28 -85t-89 -26q-63 0 -91 26t-28 85zM594 1319q0 59 27.5 85 t91.5 26q61 0 89 -26t28 -85t-28 -85t-89 -26q-63 0 -91 26t-28 85z" />
<glyph unicode="&#xec;" horiz-adv-x="464" d="M129 47v995h158q49 0 49 -47v-995h-158q-49 0 -49 47zM-23 1477h191q27 0 41 -9.5t24 -35.5q51 -123 105 -258h-113q-41 0 -63 36z" />
<glyph unicode="&#xed;" horiz-adv-x="464" d="M129 47v995h158q49 0 49 -47v-995h-158q-49 0 -49 47zM137 1187q-8 13 2 34q29 70 59.5 133t65.5 123h168q35 0 35 -27q0 -14 -8.5 -28.5t-20.5 -30.5l-168 -217h-104q-21 0 -29 13z" />
<glyph unicode="&#xee;" horiz-adv-x="464" d="M129 47v995h158q49 0 49 -47v-995h-158q-49 0 -49 47zM-14.5 1187q-6.5 13 4.5 34q35 68 73.5 128t85.5 128h142q33 0 55 -39q14 -25 34.5 -57.5t41 -67.5t40 -72t34.5 -67h-111q-23 0 -34 7t-25 29l-93 140l-116 -176h-103q-22 0 -28.5 13z" />
<glyph unicode="&#xef;" horiz-adv-x="464" d="M129 47v995h158q49 0 49 -47v-995h-158q-49 0 -49 47zM-76 1319q0 59 27.5 85t91.5 26q61 0 89 -26t28 -85t-28 -85t-89 -26q-63 0 -91 26t-28 85zM307 1319q0 59 27.5 85t91.5 26q61 0 89 -26t28 -85t-28 -85t-89 -26q-63 0 -91 26t-28 85z" />
<glyph unicode="&#xf0;" horiz-adv-x="1069" d="M100 502q0 270 101.5 392t292.5 122q121 0 215 -47q-25 70 -66 137.5t-80 110.5l-211 -76q-23 -8 -37 -1t-14 31v82l182 64q-35 39 -74.5 82t-80.5 80h168q23 0 33 -2t26 -15q29 -23 54.5 -49.5t41.5 -42.5l203 70q23 8 37 1t14 -32v-82l-170 -59q51 -66 94 -139.5 t74 -160.5t47.5 -191.5t16.5 -233.5q0 -123 -18.5 -227.5t-66.5 -179.5t-132 -118t-213 -43q-131 0 -216 42t-134.5 114t-68 167t-18.5 204zM305 502q0 -76 8.5 -142.5t33 -116.5t69.5 -79t119 -29q82 0 127 36t67.5 91t27.5 122t5 130q0 57 -2 99t-5 76t-8.5 63.5 t-11.5 62.5q-47 25 -93 37t-99 12q-70 0 -115 -21.5t-72.5 -65.5t-39 -112.5t-11.5 -162.5z" />
<glyph unicode="&#xf1;" horiz-adv-x="1073" d="M125 47v995h125q23 0 38 -10t19 -41l8 -63q127 137 326 137q168 0 239.5 -97.5t71.5 -258.5v-709h-157q-23 0 -36.5 12.5t-13.5 34.5v645q0 106 -45 152.5t-131 46.5q-84 0 -143 -34t-94 -69v-788h-158q-49 0 -49 47zM225 1241q0 88 41 144.5t131 56.5q57 0 95 -20.5 t71 -45.5q25 -18 41 -29.5t26.5 -17.5t19.5 -8t22 -2q39 0 46 37t7 82h92q23 0 29 -11.5t6 -37.5q0 -88 -41 -144.5t-131 -56.5q-57 0 -95 20.5t-71 44.5q-25 18 -41.5 29.5t-26.5 18t-19 8.5t-22 2q-20 0 -30.5 -10.5t-15.5 -27t-6 -38t-1 -43.5h-92q-23 0 -29 11t-6 38z " />
<glyph unicode="&#xf2;" horiz-adv-x="1077" d="M100 522q0 283 103.5 414t335.5 131q231 0 334.5 -131t103.5 -414q0 -285 -103.5 -416t-334.5 -131t-335 131t-104 416zM309 522q0 -113 13.5 -187.5t41 -118.5t71.5 -61.5t104 -17.5q59 0 103 17.5t71.5 61.5t41 119t13.5 187q0 111 -13.5 184.5t-41 117.5t-71.5 62.5 t-103 18.5t-103.5 -18.5t-72 -62.5t-41 -117.5t-13.5 -184.5zM282 1477h191q27 0 41 -9.5t24 -35.5q51 -123 105 -258h-113q-41 0 -63 36z" />
<glyph unicode="&#xf3;" horiz-adv-x="1077" d="M100 522q0 283 103.5 414t335.5 131q231 0 334.5 -131t103.5 -414q0 -285 -103.5 -416t-334.5 -131t-335 131t-104 416zM309 522q0 -113 13.5 -187.5t41 -118.5t71.5 -61.5t104 -17.5q59 0 103 17.5t71.5 61.5t41 119t13.5 187q0 111 -13.5 184.5t-41 117.5t-71.5 62.5 t-103 18.5t-103.5 -18.5t-72 -62.5t-41 -117.5t-13.5 -184.5zM442 1187q-8 13 2 34q29 70 59.5 133t65.5 123h168q35 0 35 -27q0 -14 -8.5 -28.5t-20.5 -30.5l-168 -217h-104q-21 0 -29 13z" />
<glyph unicode="&#xf4;" horiz-adv-x="1077" d="M100 522q0 283 103.5 414t335.5 131q231 0 334.5 -131t103.5 -414q0 -285 -103.5 -416t-334.5 -131t-335 131t-104 416zM309 522q0 -113 13.5 -187.5t41 -118.5t71.5 -61.5t104 -17.5q59 0 103 17.5t71.5 61.5t41 119t13.5 187q0 111 -13.5 184.5t-41 117.5t-71.5 62.5 t-103 18.5t-103.5 -18.5t-72 -62.5t-41 -117.5t-13.5 -184.5zM290.5 1187q-6.5 13 4.5 34q35 68 73.5 128t85.5 128h142q33 0 55 -39q14 -25 34.5 -57.5t41 -67.5t40 -72t34.5 -67h-111q-23 0 -34 7t-25 29l-93 140l-116 -176h-103q-22 0 -28.5 13z" />
<glyph unicode="&#xf5;" horiz-adv-x="1077" d="M100 522q0 283 103.5 414t335.5 131q231 0 334.5 -131t103.5 -414q0 -285 -103.5 -416t-334.5 -131t-335 131t-104 416zM309 522q0 -113 13.5 -187.5t41 -118.5t71.5 -61.5t104 -17.5q59 0 103 17.5t71.5 61.5t41 119t13.5 187q0 111 -13.5 184.5t-41 117.5t-71.5 62.5 t-103 18.5t-103.5 -18.5t-72 -62.5t-41 -117.5t-13.5 -184.5zM225 1241q0 88 41 144.5t131 56.5q57 0 95 -20.5t71 -45.5q25 -18 41 -29.5t26.5 -17.5t19.5 -8t22 -2q39 0 46 37t7 82h92q23 0 29 -11.5t6 -37.5q0 -88 -41 -144.5t-131 -56.5q-57 0 -95 20.5t-71 44.5 q-25 18 -41.5 29.5t-26.5 18t-19 8.5t-22 2q-20 0 -30.5 -10.5t-15.5 -27t-6 -38t-1 -43.5h-92q-23 0 -29 11t-6 38z" />
<glyph unicode="&#xf6;" horiz-adv-x="1077" d="M100 522q0 283 103.5 414t335.5 131q231 0 334.5 -131t103.5 -414q0 -285 -103.5 -416t-334.5 -131t-335 131t-104 416zM309 522q0 -113 13.5 -187.5t41 -118.5t71.5 -61.5t104 -17.5q59 0 103 17.5t71.5 61.5t41 119t13.5 187q0 111 -13.5 184.5t-41 117.5t-71.5 62.5 t-103 18.5t-103.5 -18.5t-72 -62.5t-41 -117.5t-13.5 -184.5zM229 1319q0 59 27.5 85t91.5 26q61 0 89 -26t28 -85t-28 -85t-89 -26q-63 0 -91 26t-28 85zM612 1319q0 59 27.5 85t91.5 26q61 0 89 -26t28 -85t-28 -85t-89 -26q-63 0 -91 26t-28 85z" />
<glyph unicode="&#xf7;" d="M139 662v124h772q47 0 47 -47v-125h-770q-49 1 -49 48zM426 356q0 61 28.5 90t94.5 29q123 0 123 -119q0 -61 -30 -87.5t-93 -26.5q-66 0 -94.5 26.5t-28.5 87.5zM426 1040q0 61 28.5 89t94.5 28q63 0 93 -27.5t30 -89.5q0 -61 -30 -88.5t-93 -27.5q-66 0 -94.5 27.5 t-28.5 88.5z" />
<glyph unicode="&#xf8;" horiz-adv-x="1077" d="M65.5 -56.5q-8.5 15.5 6.5 36.5l112 155q-84 131 -84 387q0 283 103.5 414t335.5 131q86 0 150.5 -16.5t117.5 -53.5l86 117h92q20 0 27.5 -13.5t-2.5 -27.5l-117 -162q84 -129 84 -389q0 -285 -103.5 -416t-334.5 -131q-170 0 -271 70l-86 -119l-86 2q-22 0 -30.5 15.5z M309 522q0 -61 4 -113.5t11 -80.5l374 518q-29 33 -67.5 46t-91.5 13q-61 0 -105.5 -19.5t-72 -64.5t-40 -119t-12.5 -180zM377 197q29 -33 68.5 -46.5t93.5 -13.5q61 0 105 19.5t71.5 64.5t40 119t12.5 182q0 61 -3 107.5t-13 85.5z" />
<glyph unicode="&#xf9;" horiz-adv-x="1073" d="M121 334v708h158q23 0 36 -12t13 -35v-645q0 -106 45 -152t131 -46q84 0 143.5 33.5t93.5 68.5v788h158q49 0 49 -47v-995h-125q-23 0 -38 10t-19 41l-8 64q-127 -137 -326 -138q-84 0 -143.5 26t-96 72t-54 112.5t-17.5 146.5zM278 1477h191q27 0 41 -9.5t24 -35.5 q51 -123 105 -258h-113q-41 0 -63 36z" />
<glyph unicode="&#xfa;" horiz-adv-x="1073" d="M121 334v708h158q23 0 36 -12t13 -35v-645q0 -106 45 -152t131 -46q84 0 143.5 33.5t93.5 68.5v788h158q49 0 49 -47v-995h-125q-23 0 -38 10t-19 41l-8 64q-127 -137 -326 -138q-84 0 -143.5 26t-96 72t-54 112.5t-17.5 146.5zM438 1187q-8 13 2 34q29 70 59.5 133 t65.5 123h168q35 0 35 -27q0 -14 -8.5 -28.5t-20.5 -30.5l-168 -217h-104q-21 0 -29 13z" />
<glyph unicode="&#xfb;" horiz-adv-x="1073" d="M121 334v708h158q23 0 36 -12t13 -35v-645q0 -106 45 -152t131 -46q84 0 143.5 33.5t93.5 68.5v788h158q49 0 49 -47v-995h-125q-23 0 -38 10t-19 41l-8 64q-127 -137 -326 -138q-84 0 -143.5 26t-96 72t-54 112.5t-17.5 146.5zM286.5 1187q-6.5 13 4.5 34 q35 68 73.5 128t85.5 128h142q33 0 55 -39q14 -25 34.5 -57.5t41 -67.5t40 -72t34.5 -67h-111q-23 0 -34 7t-25 29l-93 140l-116 -176h-103q-22 0 -28.5 13z" />
<glyph unicode="&#xfc;" horiz-adv-x="1073" d="M121 334v708h158q23 0 36 -12t13 -35v-645q0 -106 45 -152t131 -46q84 0 143.5 33.5t93.5 68.5v788h158q49 0 49 -47v-995h-125q-23 0 -38 10t-19 41l-8 64q-127 -137 -326 -138q-84 0 -143.5 26t-96 72t-54 112.5t-17.5 146.5zM225 1319q0 59 27.5 85t91.5 26 q61 0 89 -26t28 -85t-28 -85t-89 -26q-63 0 -91 26t-28 85zM608 1319q0 59 27.5 85t91.5 26q61 0 89 -26t28 -85t-28 -85t-89 -26q-63 0 -91 26t-28 85z" />
<glyph unicode="&#xfd;" horiz-adv-x="983" d="M55 1042h166q31 0 39 -15t12 -32q20 -119 39 -207t43.5 -174t61.5 -184t94 -233q78 186 128 401t79 444h153q27 0 35 -11t8 -27q0 -18 -5 -51t-9 -60q-35 -205 -88 -382t-106 -308q-68 -170 -129.5 -277.5t-122 -171t-121 -87t-123.5 -23.5q-25 0 -55.5 3t-44.5 11 q-35 16 -35 55v94q25 -2 43 -2h35q51 0 89 13.5t66.5 39t53 65.5t53.5 93q-68 117 -125.5 245t-103.5 260t-80 263t-50 258zM395 1187q-8 13 2 34q29 70 59.5 133t65.5 123h168q35 0 35 -27q0 -14 -8.5 -28.5t-20.5 -30.5l-168 -217h-104q-21 0 -29 13z" />
<glyph unicode="&#xfe;" horiz-adv-x="1087" d="M145 -301v1771h146q61 0 61 -59v-430q49 35 113.5 60.5t157.5 25.5q168 0 265 -126t97 -411q0 -283 -94 -412.5t-293 -129.5q-90 0 -147.5 20.5t-98.5 42.5v-399h-157q-50 0 -50 47zM352 195q39 -20 84 -32.5t101 -12.5q63 0 108 18t75 63t44 117t14 180q0 203 -54 290 t-167 87q-66 0 -116 -20.5t-89 -46.5v-643z" />
<glyph unicode="&#xff;" horiz-adv-x="983" d="M55 1042h166q31 0 39 -15t12 -32q20 -119 39 -207t43.5 -174t61.5 -184t94 -233q78 186 128 401t79 444h153q27 0 35 -11t8 -27q0 -18 -5 -51t-9 -60q-35 -205 -88 -382t-106 -308q-68 -170 -129.5 -277.5t-122 -171t-121 -87t-123.5 -23.5q-25 0 -55.5 3t-44.5 11 q-35 16 -35 55v94q25 -2 43 -2h35q51 0 89 13.5t66.5 39t53 65.5t53.5 93q-68 117 -125.5 245t-103.5 260t-80 263t-50 258zM184 1319q0 59 27.5 85t91.5 26q61 0 89 -26t28 -85t-28 -85t-89 -26q-63 0 -91 26t-28 85zM567 1319q0 59 27.5 85t91.5 26q61 0 89 -26t28 -85 t-28 -85t-89 -26q-63 0 -91 26t-28 85z" />
<glyph unicode="&#x131;" horiz-adv-x="464" d="M129 47v995h158q49 0 49 -47v-995h-158q-49 0 -49 47z" />
<glyph unicode="&#x152;" horiz-adv-x="1656" d="M115 709q0 223 41 365.5t113.5 223t173 111.5t221.5 31q45 0 90 -5t88 -16h661q49 0 49 -47v-129h-540v-436h438q49 0 49 -47v-131h-487v-453h514q49 0 49 -47v-129h-733q-47 -12 -97.5 -17.5t-95.5 -5.5q-123 0 -222 29t-168 109t-106.5 222.5t-37.5 371.5zM332 709 q0 -158 16.5 -263.5t53 -170t97 -91t150.5 -26.5q39 0 80 5t74 15v1061q-63 23 -139 23q-88 0 -151.5 -27t-103.5 -90.5t-58.5 -169.5t-18.5 -266z" />
<glyph unicode="&#x153;" horiz-adv-x="1628" d="M100 522q0 283 101.5 414t320.5 131q238 0 324 -176q47 92 127 134t188 42q111 0 182.5 -34t113.5 -93t57.5 -140t15.5 -175q0 -41 -6 -93.5t-17 -80.5h-569q4 -82 15.5 -140.5t41 -95.5t79.5 -54.5t134 -17.5q98 0 154.5 8.5t85.5 8.5q27 0 38 -14.5t11 -34.5v-82 q-47 -20 -132 -36t-183 -16q-129 0 -212 41t-124 129q-90 -172 -324 -172q-219 0 -320.5 131t-101.5 416zM305 522q0 -113 13.5 -187.5t40 -118.5t68.5 -61.5t101 -17.5q57 0 99.5 17.5t69 61.5t39 119t12.5 187q0 111 -12.5 184.5t-39 117.5t-68.5 62.5t-100 18.5 q-59 0 -101 -18.5t-68.5 -62.5t-40 -117.5t-13.5 -184.5zM938 588h408q2 20 2 32v27q0 131 -40 197.5t-157 66.5q-59 0 -99 -22.5t-64.5 -64.5t-36 -102t-13.5 -134z" />
<glyph unicode="&#x178;" horiz-adv-x="1075" d="M39 1419h186q31 0 40 -13t18 -42q18 -66 44.5 -141.5t58.5 -158.5t71 -170t86 -173q47 88 91 187.5t80 194.5t62.5 178t36.5 138h160q29 0 41 -19q7 -11 6 -24q0 -11 -4 -24q-37 -117 -76 -219.5t-84 -199.5t-97 -193.5t-114 -200.5v-539h-166q-49 0 -49 47v492 q-70 117 -127 224t-104 214.5t-87 216t-73 225.5zM229 1663q0 59 27.5 85t91.5 26q61 0 89 -26t28 -85t-28 -85t-89 -26q-63 0 -91 26t-28 85zM612 1663q0 59 27.5 85t91.5 26q61 0 89 -26t28 -85t-28 -85t-89 -26q-63 0 -91 26t-28 85z" />
<glyph unicode="&#x2c6;" horiz-adv-x="888" d="M196.5 1187q-6.5 13 4.5 34q35 68 73.5 128t85.5 128h142q33 0 55 -39q14 -25 34.5 -57.5t41 -67.5t40 -72t34.5 -67h-111q-23 0 -34 7t-25 29l-93 140l-116 -176h-103q-22 0 -28.5 13z" />
<glyph unicode="&#x2da;" horiz-adv-x="888" d="M236 1366q0 86 51 139.5t159 53.5q104 0 155.5 -55.5t51.5 -135.5q0 -98 -51 -151.5t-160 -53.5q-104 0 -155 55.5t-51 147.5zM342 1362q0 -102 102 -102t103 102q0 100 -103 100q-102 0 -102 -100z" />
<glyph unicode="&#x2dc;" horiz-adv-x="888" d="M131 1241q0 88 41 144.5t131 56.5q57 0 95 -20.5t71 -45.5q25 -18 41 -29.5t26.5 -17.5t19.5 -8t22 -2q39 0 46 37t7 82h92q23 0 29 -11.5t6 -37.5q0 -88 -41 -144.5t-131 -56.5q-57 0 -95 20.5t-71 44.5q-25 18 -41.5 29.5t-26.5 18t-19 8.5t-22 2q-20 0 -30.5 -10.5 t-15.5 -27t-6 -38t-1 -43.5h-92q-23 0 -29 11t-6 38z" />
<glyph unicode="&#x2000;" horiz-adv-x="940" />
<glyph unicode="&#x2001;" horiz-adv-x="1882" />
<glyph unicode="&#x2002;" horiz-adv-x="940" />
<glyph unicode="&#x2003;" horiz-adv-x="1882" />
<glyph unicode="&#x2004;" horiz-adv-x="626" />
<glyph unicode="&#x2005;" horiz-adv-x="468" />
<glyph unicode="&#x2006;" horiz-adv-x="313" />
<glyph unicode="&#x2007;" horiz-adv-x="313" />
<glyph unicode="&#x2008;" horiz-adv-x="233" />
<glyph unicode="&#x2009;" horiz-adv-x="374" />
<glyph unicode="&#x200a;" horiz-adv-x="104" />
<glyph unicode="&#x2010;" horiz-adv-x="788" d="M90 514v137h559q49 0 49 -47v-137h-559q-49 0 -49 47z" />
<glyph unicode="&#x2011;" horiz-adv-x="788" d="M90 514v137h559q49 0 49 -47v-137h-559q-49 0 -49 47z" />
<glyph unicode="&#x2012;" horiz-adv-x="788" d="M90 514v137h559q49 0 49 -47v-137h-559q-49 0 -49 47z" />
<glyph unicode="&#x2013;" horiz-adv-x="1032" d="M0 559v172h1032v-172h-1032z" />
<glyph unicode="&#x2014;" horiz-adv-x="2054" d="M0 559v172h2054v-172h-2054z" />
<glyph unicode="&#x2018;" horiz-adv-x="444" d="M90 1067q0 43 20.5 99.5t53.5 119.5l67 135h84q33 0 33 -28q0 -12 -6 -31l-76 -182q49 -12 68.5 -40t19.5 -71q0 -66 -29.5 -95.5t-101.5 -29.5t-102.5 30t-30.5 93z" />
<glyph unicode="&#x2019;" horiz-adv-x="444" d="M90 1300q0 66 30 95.5t101 29.5q72 0 102.5 -29.5t30.5 -92.5q0 -43 -20.5 -99.5t-52.5 -120.5l-68 -135h-84q-33 0 -33 29q0 12 6 31l76 182q-49 12 -68.5 39.5t-19.5 70.5z" />
<glyph unicode="&#x201a;" horiz-adv-x="444" d="M90 124q0 66 30 95.5t101 29.5q72 0 102.5 -29.5t30.5 -92.5q0 -43 -20.5 -99.5t-52.5 -120.5l-68 -135h-84q-33 0 -33 29q0 12 6 31l76 182q-49 12 -68.5 39.5t-19.5 70.5z" />
<glyph unicode="&#x201c;" horiz-adv-x="804" d="M90 1067q0 43 20.5 99.5t53.5 119.5l67 135h84q33 0 33 -28q0 -12 -6 -31l-76 -182q49 -12 68.5 -40t19.5 -71q0 -66 -29.5 -95.5t-101.5 -29.5t-102.5 30t-30.5 93zM450 1067q0 43 20.5 99.5t53.5 119.5l67 135h84q33 0 33 -28q0 -12 -6 -31l-76 -182q49 -12 68.5 -40 t19.5 -71q0 -66 -29.5 -95.5t-101.5 -29.5t-102.5 30t-30.5 93z" />
<glyph unicode="&#x201d;" horiz-adv-x="804" d="M90 1300q0 66 30 95.5t101 29.5q72 0 102.5 -29.5t30.5 -92.5q0 -43 -20.5 -99.5t-52.5 -120.5l-68 -135h-84q-33 0 -33 29q0 12 6 31l76 182q-49 12 -68.5 39.5t-19.5 70.5zM450 1300q0 66 30 95.5t101 29.5q72 0 102.5 -29.5t30.5 -92.5q0 -43 -20.5 -99.5 t-52.5 -120.5l-68 -135h-84q-33 0 -33 29q0 12 6 31l76 182q-49 12 -68.5 39.5t-19.5 70.5z" />
<glyph unicode="&#x201e;" horiz-adv-x="804" d="M90 124q0 66 30 95.5t101 29.5q72 0 102.5 -29.5t30.5 -92.5q0 -43 -20.5 -99.5t-52.5 -120.5l-68 -135h-84q-33 0 -33 29q0 12 6 31l76 182q-49 12 -68.5 39.5t-19.5 70.5zM450 124q0 66 30 95.5t101 29.5q72 0 102.5 -29.5t30.5 -92.5q0 -43 -20.5 -99.5t-52.5 -120.5 l-68 -135h-84q-33 0 -33 29q0 12 6 31l76 182q-49 12 -68.5 39.5t-19.5 70.5z" />
<glyph unicode="&#x2022;" horiz-adv-x="854" d="M147 709q0 145 71 209.5t210 64.5q137 0 208 -64.5t71 -209.5t-71 -210t-208 -65q-139 0 -210 65t-71 210z" />
<glyph unicode="&#x2026;" horiz-adv-x="1533" d="M119 119q0 70 32.5 99.5t104.5 29.5t104.5 -30t32.5 -99q0 -72 -32.5 -101.5t-104.5 -29.5q-74 0 -105.5 29.5t-31.5 101.5zM631 119q0 70 32.5 99.5t104.5 29.5t104.5 -30t32.5 -99q0 -72 -32.5 -101.5t-104.5 -29.5q-74 0 -105.5 29.5t-31.5 101.5zM1141 119 q0 70 32.5 99.5t104.5 29.5t104.5 -30t32.5 -99q0 -72 -32.5 -101.5t-104.5 -29.5q-74 0 -105.5 29.5t-31.5 101.5z" />
<glyph unicode="&#x202f;" horiz-adv-x="374" />
<glyph unicode="&#x2039;" horiz-adv-x="522" d="M82 530l190 390h127q20 0 28.5 -14.5t2.5 -33.5l-10 -25q-6 -15 -12 -28q-35 -72 -66 -144.5t-66 -144.5l168 -389h-141q-37 0 -54.5 35t-31.5 66z" />
<glyph unicode="&#x203a;" horiz-adv-x="522" d="M82 920h141q18 0 31.5 -10.5t23 -25t16.5 -32.5t15 -33l135 -289l-190 -389h-127q-20 0 -28.5 14.5t-2.5 32.5l10 26q6 15 13 28q35 72 65.5 144.5t65.5 143.5z" />
<glyph unicode="&#x2044;" horiz-adv-x="323" d="M-324 35q0 12 11 28l807 1323h114q39 0 39 -34q0 -14 -8 -29l-807 -1323h-115q-41 0 -41 35z" />
<glyph unicode="&#x205f;" horiz-adv-x="468" />
<glyph unicode="&#x2074;" horiz-adv-x="774" d="M72 805v72q18 55 52 122.5t81 137t106.5 134t128.5 115.5h123q45 0 45 -43v-464h43q43 0 43 -43v-74h-86v-187h-100q-45 0 -45 43v144h-346q-45 0 -45 43zM205 879h258v372q-94 -80 -160.5 -180t-97.5 -192z" />
<glyph unicode="&#x20ac;" d="M86 539v90h131q-2 23 -2 47v51v45q0 23 2 45h-86q-45 0 -45 45v90h143q14 131 51 223.5t98.5 150.5t148.5 86t202 28q51 0 105.5 -4t98.5 -16.5t71.5 -34t27.5 -54.5v-94q-59 8 -130 15.5t-146 7.5q-76 0 -132.5 -15.5t-95.5 -51.5t-62.5 -94.5t-35.5 -146.5h371 q45 0 45 -43v-92h-424q-2 -23 -2 -45v-45v-51q0 -25 2 -47h379q45 0 45 -43v-92h-414q12 -96 40 -158t68 -96.5t93 -47t119 -12.5q88 0 148.5 10.5t94.5 10.5q49 0 49 -49v-99q-57 -23 -139 -39t-188 -16q-221 0 -339 116.5t-149 379.5h-98q-45 0 -45 45z" />
<glyph unicode="&#x2122;" horiz-adv-x="1495" d="M45 1331v88h535q41 0 41 -37v-88h-211v-639h-107q-41 0 -41 37v602h-178q-39 0 -39 37zM678 692q2 160 10 332t23 395h139q33 0 45 -35l147 -397l162 432h123q20 0 29.5 -10t9.5 -27q12 -162 21.5 -350t11.5 -377h-99q-39 0 -38 37q-2 137 -6.5 285.5t-8.5 290.5 l-155 -422h-76q-23 0 -31 8t-12 25l-144 389q-4 -68 -5 -139.5t-3 -143.5q-4 -84 -5 -168t-1 -162h-96q-41 0 -41 37z" />
<glyph unicode="&#xe000;" horiz-adv-x="1040" d="M0 1040h1040v-1040h-1040v1040z" />
<glyph unicode="&#xf001;" horiz-adv-x="1081" d="M63 950v92h121v105q0 82 11.5 146.5t41 109.5t79 67.5t126.5 22.5q23 0 52.5 -2t56.5 -11.5t45 -25.5t18 -45v-88q-41 4 -62.5 6t-45.5 2q-78 0 -97.5 -40t-19.5 -111v-136h512q49 0 49 -47v-995h-157q-23 0 -36.5 12.5t-13.5 34.5v832h-354v-879h-158q-47 0 -47 47v832 h-71q-33 0 -41.5 18t-8.5 53zM721 1319q0 59 29.5 86t97.5 27q66 0 96.5 -27t30.5 -86q0 -61 -31 -87t-96 -26q-68 0 -97.5 26t-29.5 87z" />
<glyph unicode="&#xf002;" horiz-adv-x="1155" d="M63 926v116h121v105q0 82 11.5 146.5t41 109.5t79 67.5t126.5 22.5q20 0 49 -2t56.5 -10t47 -25.5t19.5 -46.5v-88q-41 4 -62.5 6t-45.5 2q-78 0 -97.5 -40t-19.5 -111v-136h354v428h158q49 0 49 -47v-1181q0 -55 18.5 -71.5t65.5 -18.5q33 -2 50.5 -10.5t17.5 -39.5v-94 q-35 -10 -70 -15t-76 -5q-121 0 -167 75.5t-46 229.5v586h-354v-879h-158q-47 0 -47 47v832h-71q-50 0 -50 47z" />
<glyph unicode="&#xfb01;" horiz-adv-x="1081" d="M63 950v92h121v105q0 82 11.5 146.5t41 109.5t79 67.5t126.5 22.5q23 0 52.5 -2t56.5 -11.5t45 -25.5t18 -45v-88q-41 4 -62.5 6t-45.5 2q-78 0 -97.5 -40t-19.5 -111v-136h512q49 0 49 -47v-995h-157q-23 0 -36.5 12.5t-13.5 34.5v832h-354v-879h-158q-47 0 -47 47v832 h-71q-33 0 -41.5 18t-8.5 53zM721 1319q0 59 29.5 86t97.5 27q66 0 96.5 -27t30.5 -86q0 -61 -31 -87t-96 -26q-68 0 -97.5 26t-29.5 87z" />
<glyph unicode="&#xfb02;" horiz-adv-x="1155" d="M63 926v116h121v105q0 82 11.5 146.5t41 109.5t79 67.5t126.5 22.5q20 0 49 -2t56.5 -10t47 -25.5t19.5 -46.5v-88q-41 4 -62.5 6t-45.5 2q-78 0 -97.5 -40t-19.5 -111v-136h354v428h158q49 0 49 -47v-1181q0 -55 18.5 -71.5t65.5 -18.5q33 -2 50.5 -10.5t17.5 -39.5v-94 q-35 -10 -70 -15t-76 -5q-121 0 -167 75.5t-46 229.5v586h-354v-879h-158q-47 0 -47 47v832h-71q-50 0 -50 47z" />
<glyph unicode="&#xfb03;" horiz-adv-x="1640" d="M63 926v116h121v158q0 139 62.5 216t210.5 77q29 0 72.5 -5t74.5 -18q23 -10 30 -25t7 -36v-88q-43 4 -65.5 6t-53.5 2q-45 0 -71.5 -10t-40 -28.5t-17.5 -44t-4 -56.5v-148h354v146q0 154 61.5 229.5t199.5 75.5q29 0 66.5 -4t70.5 -19q35 -16 35 -61v-88q-41 4 -62.5 6 t-46.5 2q-78 0 -97.5 -40t-19.5 -111v-136h512q23 0 36 -12t13 -35v-995h-157q-49 0 -49 47v832h-355v-879h-157q-23 0 -36.5 12.5t-13.5 34.5v832h-354v-879h-158q-47 0 -47 47v832h-71q-50 0 -50 47zM1282 1319q0 59 29.5 86t97.5 27q66 0 95.5 -27t29.5 -86 q0 -61 -29.5 -87t-95.5 -26q-68 0 -97.5 26t-29.5 87z" />
<glyph unicode="&#xfb04;" horiz-adv-x="1714" d="M63 926v116h121v113q0 74 10.5 135.5t40 106.5t83 70.5t139.5 25.5q25 0 56.5 -2t60 -11.5t48 -25.5t19.5 -45v-88q-43 4 -65.5 6t-53.5 2q-53 0 -80.5 -13t-39 -38t-12.5 -58.5t-1 -72.5v-105h354v105q0 82 12.5 146.5t42 109.5t80 67.5t126.5 22.5q20 0 49.5 -2 t56.5 -10t46.5 -25.5t19.5 -46.5v-88q-41 4 -62.5 6t-46.5 2q-45 0 -68.5 -13t-35 -38t-12.5 -59.5t-1 -79.5v-97h355v428h157q23 0 36 -12t13 -35v-1181q0 -55 18.5 -71.5t65.5 -18.5q33 -2 49.5 -10.5t16.5 -39.5v-94q-33 -10 -67.5 -15t-75.5 -5q-123 0 -168 75.5 t-45 229.5v586h-355v-879h-157q-23 0 -36.5 12.5t-13.5 34.5v832h-354v-879h-158q-47 0 -47 47v832h-71q-50 0 -50 47z" />
<glyph horiz-adv-x="888" d="M131 1589q0 88 41 144.5t131 56.5q57 0 95 -20.5t71 -45.5q25 -18 41 -29.5t26.5 -17.5t19.5 -8t22 -2q39 0 46 37t7 82h90q23 0 30 -11.5t7 -37.5q0 -88 -41 -144.5t-131 -56.5q-57 0 -95 20.5t-71 45.5q-25 18 -41.5 29t-26.5 17.5t-19 8.5t-22 2q-20 0 -30.5 -10.5 t-15.5 -26.5t-6 -37.5t-1 -44.5h-90q-23 0 -30 11t-7 38z" />
<glyph horiz-adv-x="888" d="M236 1686q0 88 51 142t157 54t157.5 -54t51.5 -142q0 -90 -51 -144.5t-158 -54.5q-106 0 -157 54.5t-51 144.5zM342 1686q0 -102 102 -103q102 0 103 103q0 100 -103 100q-102 0 -102 -100z" />
<glyph horiz-adv-x="888" d="M135 1663q0 59 27.5 85t91.5 26q61 0 89 -26t28 -85t-28 -85t-89 -26q-63 0 -91 26t-28 85zM518 1663q0 59 27.5 85t91.5 26q61 0 89 -26t28 -85t-28 -85t-89 -26q-63 0 -91 26t-28 85z" />
<glyph horiz-adv-x="888" d="M188 1543.5q-2 17.5 9 37.5q6 12 23.5 38t40 58.5t47 67.5t46.5 63h148q23 0 36 -8t23 -22q14 -18 35.5 -49t44.5 -67t44.5 -72t37.5 -64h-123q-23 0 -34 7t-27 30l-95 125l-122 -162h-103q-29 0 -31 17.5z" />
<glyph horiz-adv-x="888" d="M340 1571q4 12 17.5 38.5t33 60.5t41 71t43.5 67h170q37 0 37 -28q0 -25 -25 -51l-178 -203h-110q-45 0 -29 45z" />
<glyph horiz-adv-x="888" d="M178 1808h203q29 0 41 -12t33 -47q29 -49 56.5 -105.5t49.5 -117.5h-123q-23 0 -36 8t-27 27z" />
<glyph horiz-adv-x="751" d="M80 1026q0 106 21.5 180t61.5 119t93 64.5t119 19.5q63 0 118.5 -19.5t94.5 -64.5t61.5 -118.5t22.5 -180.5q0 -109 -22.5 -181.5t-61.5 -117.5t-94.5 -64.5t-118.5 -19.5q-66 0 -119 19.5t-93 64.5t-61.5 117.5t-21.5 181.5zM240 1026q0 -131 28.5 -191.5t106.5 -60.5 q80 0 107.5 60.5t27.5 191.5t-27.5 191.5t-107.5 60.5q-78 0 -106.5 -60.5t-28.5 -191.5z" />
</font>
</defs>
</svg>
